<svg xmlns="http://www.w3.org/2000/svg" viewBox="0 0 214.9 180.8"><defs/><path fill="#b3b3b3" fill-rule="evenodd" d="M3.4 11.5h39.2v13H3.4z" clip-rule="evenodd"/><path fill="none" stroke="#000" stroke-linecap="round" stroke-linejoin="round" d="M3.4 11.5h39.2v13H3.4zm82.5 6.4h35.7"/><path d="M120.7 21l5.2-3-5.2-3z"/><path fill="#4d4d4d" fill-rule="evenodd" d="M44.6 107.6l7-6h-3.9V89h-6.2v12.4h-3.9zm122.6 0l7-6h-3.9V89h-6.2v12.4h-3.9z" clip-rule="evenodd"/><path d="M17.3 17.4c-.2 0-.4-.2-.4-.5s.2-.6.4-.6c.3 0 .5.2.5.6 0 .3-.2.5-.5.5zm0 3.3c-.2 0-.4-.2-.4-.5s.2-.6.4-.6c.3 0 .5.3.5.6s-.2.5-.5.5zm1.4-3.3v-1.2h.5v.6a1 1 0 011-.6c.5 0 .8.1 1 .6a1.5 1.5 0 01.4-.5l.6-.1c.6 0 1 .4 1 1.5v2.9h-.6v-2.7c0-.6 0-1.2-.6-1.2-.3 0-.6.3-.7.7V20.6h-.7v-2.9c0-.4 0-1-.6-1-.3 0-.5.3-.6.8a2.3 2.3 0 000 .3v2.8h-.7v-3.2zm6 1c0 1.4.6 1.7 1 1.7s.6 0 .8-.2v.5c-.2.2-.5.2-.9.2-1 0-1.5-.8-1.5-2.1 0-1.5.5-2.3 1.4-2.3.9 0 1.3.9 1.3 1.9v.4h-2zm1.4-.4c0-1-.3-1.3-.6-1.3-.5 0-.7.7-.8 1.3h1.4zm2.3-2.8v1h.8v.6h-.8v2.5c0 .6.2.8.4.8h.3v.5a1.5 1.5 0 01-.5 0c-.3 0-.5 0-.7-.2-.2-.2-.2-.5-.2-1.1v-2.5H27v-.6h.6v-.7l.7-.3zm1.4-.8h.7v2.3l.4-.4.6-.1c.5 0 1 .4 1 1.5v2.9h-.7v-2.8c0-.6-.1-1-.6-1-.3 0-.6.2-.7.6V20.6h-.7v-6.2zm4.9 6.3c-.8 0-1.4-.7-1.4-2.3 0-1.6.7-2.2 1.4-2.2.8 0 1.4.7 1.4 2.2 0 1.7-.7 2.3-1.4 2.3zm0-.6c.6 0 .7-1 .7-1.7s0-1.7-.7-1.7c-.6 0-.7 1-.7 1.7s0 1.7.7 1.7zm4.8-5.7v6.1H39v-.4h-.1a1 1 0 01-1 .6c-.7 0-1.2-.8-1.2-2.3 0-1.5.6-2.2 1.3-2.2.3 0 .6.1.8.5v-2.3h.7zm-.7 3.5v-.3c0-.4-.3-.8-.6-.8-.6 0-.8.8-.8 1.6 0 1 .2 1.7.7 1.7.3 0 .6-.1.7-.8V18zM4 1.6a4 4 0 011-.2c.6 0 1 .2 1.4.5.3.3.4.7.4 1.2 0 .7-.3 1.2-1 1.5.5.2.7.6.8 1.4L7 7.5h-.7L5.9 6c-.2-.8-.4-1.1-1-1.1h-.3v2.6H4v-6zm.7 2.8H5C5.6 4.4 6 3.9 6 3c0-.7-.3-1-1-1.1h-.4v2.4zm3.4 1C8 6.8 8.6 7 9 7l.8-.1.1.5-1 .2c-1 0-1.5-.9-1.5-2.2 0-1.4.6-2.3 1.4-2.3 1 0 1.3 1 1.3 2v.3H8zM9.4 5c0-.9-.3-1.3-.6-1.3-.5 0-.7.7-.8 1.3h1.4zm3.3 2.2a1 1 0 01-.8.5c-.7 0-1.3-.8-1.3-2.2 0-1.5.7-2.3 1.4-2.3.3 0 .6.1.8.6v-.5h.7v6.1h-.8V7zm0-2.3v-.3c0-.4-.3-.8-.6-.8-.6 0-.8.8-.8 1.7 0 .9.2 1.6.8 1.6.2 0 .5-.1.6-.7V5zM17 6.3v1.2h-.6v-.4c-.1.2-.5.5-1 .5-.7 0-1-.6-1-1.7V3.2h.7v2.6c0 .7 0 1.2.6 1.2.4 0 .6-.4.6-.6V3.2h.7v3.1zm1.5-.9c0 1.4.5 1.6 1 1.6l.7-.1.1.5-1 .2c-1 0-1.5-.9-1.5-2.2 0-1.4.6-2.3 1.5-2.3.8 0 1.2 1 1.2 2v.3h-2zm1.3-.5c0-.9-.3-1.3-.6-1.3-.5 0-.7.7-.7 1.3h1.3zm1.3 2l.7.1c.4 0 .7-.2.7-.6 0-.3-.1-.6-.6-.8-.5-.4-.9-.8-.9-1.3 0-.7.6-1.2 1.2-1.2l.8.2-.2.6a1 1 0 00-.5-.2c-.4 0-.6.2-.6.5s.1.5.5.8c.5.3 1 .7 1 1.3 0 .9-.7 1.3-1.4 1.3-.3 0-.6-.1-.8-.3l.1-.5zm3.6-4.7v1h.8v.5h-.8v2.6c0 .6.2.7.5.7h.2v.5a1.5 1.5 0 01-.4 0c-.3 0-.6 0-.7-.2-.2-.2-.3-.5-.3-1V3.6h-.5v-.5h.5v-.8l.7-.2zm3 5.3l.2-1.8h-.6v-.4h.6l.2-1.4h-.6v-.5h.7l.2-1.7h.4l-.2 1.7h.7l.2-1.7h.5l-.2 1.7h.5V4h-.6l-.2 1.4h.7v.4h-.7l-.2 1.8h-.5l.2-1.8h-.7l-.2 1.8h-.5zM29 5.3l.2-1.4h-.7l-.2 1.4h.7zm3.1-3l-1 .6v-.5l1.1-.7h.6v5.8h-.7V2.4z"/><path fill="#b2d4eb" fill-rule="evenodd" d="M3.4 116.8h82.5v57.7H3.4z" clip-rule="evenodd"/><path fill="none" stroke="#000" stroke-linecap="round" stroke-linejoin="round" d="M3.4 116.8h82.5v57.7H3.4z"/><path d="M15.6 121.7c-.3 0-.5-.2-.5-.5s.2-.6.5-.6.4.3.4.6-.1.5-.4.5zm0 3.3c-.3 0-.5-.2-.5-.5s.2-.6.5-.6.4.3.4.6-.1.5-.4.5zm1.3-3.3v-1.2h.6v.6a1 1 0 011-.6c.4 0 .8.2 1 .6 0-.2.2-.4.4-.5l.6-.1c.6 0 1 .4 1 1.5v2.9h-.7v-2.7c0-.6 0-1.2-.6-1.2-.2 0-.5.3-.6.7V124.9h-.7V122c0-.4-.1-1-.6-1-.3 0-.6.3-.7.8a2.3 2.3 0 000 .3v2.8H17v-3.2zm6 1c0 1.4.6 1.7 1.1 1.7.3 0 .6 0 .7-.2l.1.5c-.2.2-.6.2-1 .2-1 0-1.5-.8-1.5-2.1 0-1.5.6-2.3 1.5-2.3s1.2.9 1.2 1.9v.4h-2zm1.5-.4c0-1-.4-1.3-.7-1.3-.4 0-.7.7-.7 1.3h1.4zm2.2-2.8v1h.8v.6h-.8v2.6c0 .5.2.7.5.7h.2v.5a1.5 1.5 0 01-.4 0c-.3 0-.6 0-.7-.2-.2-.2-.3-.5-.3-1.1V121h-.5v-.6h.5v-.7l.7-.3zm1.5-.8h.7v2.3l.3-.4.6-.1c.6 0 1 .4 1 1.5v2.9H30V122c0-.6 0-1-.5-1-.4 0-.6.2-.7.6V125H28v-6.2zm4.8 6.3c-.8 0-1.4-.7-1.4-2.3 0-1.6.7-2.2 1.5-2.2s1.4.7 1.4 2.2c0 1.7-.8 2.3-1.5 2.3zm0-.6c.7 0 .8-1 .8-1.7s-.1-1.7-.8-1.7c-.6 0-.7 1-.7 1.7s.1 1.7.8 1.7zm4.9-5.7v6.2h-.6v-.5a1 1 0 01-1 .6c-.7 0-1.2-.8-1.2-2.3 0-1.5.6-2.2 1.3-2.2.3 0 .6.1.8.5v-2.3h.7zm-.7 3.5v-.3c0-.4-.3-.8-.7-.8-.5 0-.7.8-.7 1.6 0 1 .2 1.7.7 1.7.2 0 .5-.1.7-.8v-1.4zm2-.5c-.2 0-.4-.2-.4-.5s.2-.6.5-.6c.2 0 .4.3.4.6s-.2.5-.4.5zm0 3.3c-.2 0-.4-.2-.4-.5s.2-.6.5-.6c.2 0 .4.3.4.6s-.2.5-.4.5zm-22.8 5.7c-.2 0-.4-.2-.4-.5s.2-.6.4-.6c.3 0 .5.3.5.6s-.2.5-.5.5zm0 3.3c-.2 0-.4-.2-.4-.5s.2-.6.4-.6c.3 0 .5.3.5.6s-.2.5-.5.5zm1.2-.8l.8.2c.3 0 .6-.2.6-.6 0-.4-.1-.6-.6-.9-.5-.4-.8-.7-.8-1.2 0-.7.5-1.2 1.2-1.2.3 0 .5 0 .7.2l-.2.5a1 1 0 00-.5-.2c-.4 0-.6.3-.6.6s.1.4.5.7c.6.3 1 .7 1 1.4 0 .8-.6 1.3-1.4 1.3-.3 0-.6-.2-.8-.3l.1-.5zm4.9.6l-.7.1c-1 0-1.6-.7-1.6-2.2 0-1.2.6-2.2 1.7-2.2l.6.1-.1.6a1.1 1.1 0 00-.5-.1c-.7 0-1 .8-1 1.6 0 1 .4 1.7 1 1.7l.5-.1v.5zm.6-6.1h.7v2.3l.4-.4.5-.1c.6 0 1 .4 1 1.5v2.9H25V131c0-.6-.2-1-.6-1-.3 0-.6.2-.7.6V134H23v-6.2zm4.1 4c0 1.4.5 1.7 1 1.7.3 0 .6 0 .8-.2v.5c-.2.2-.5.2-.9.2-1 0-1.6-.8-1.6-2.1 0-1.5.6-2.3 1.5-2.3s1.2.9 1.2 1.9v.4h-2zm1.4-.4c0-1-.3-1.3-.7-1.3-.4 0-.6.7-.7 1.3h1.4zm1.4-.6v-1.2h.6v.6a1 1 0 011-.6c.4 0 .8.2 1 .6 0-.2.2-.4.4-.5l.6-.1c.6 0 1 .4 1 1.5v2.9h-.7v-2.7c0-.6 0-1.2-.6-1.2-.3 0-.5.3-.6.7V133.9h-.7V131c0-.4-.1-1-.6-1-.3 0-.6.3-.7.8a2.3 2.3 0 000 .3v2.8h-.7v-3.2zm6 1c0 1.4.6 1.7 1 1.7s.6 0 .8-.2l.1.5c-.2.2-.6.2-1 .2-1 0-1.5-.8-1.5-2.1 0-1.5.6-2.3 1.5-2.3.8 0 1.2.9 1.2 1.9v.4h-2zm1.4-.4c0-1-.3-1.3-.6-1.3-.5 0-.7.7-.7 1.3h1.3zm1.8-.6c-.2 0-.4-.2-.4-.5s.2-.6.5-.6c.2 0 .4.3.4.6s-.2.5-.4.5zm0 3.3c-.2 0-.4-.2-.4-.5s.2-.6.5-.6c.2 0 .4.3.4.6s-.2.5-.4.5zm-13.7 5.7c-.2 0-.4-.2-.4-.5s.2-.6.4-.6c.3 0 .5.3.5.6s-.2.5-.5.5zm0 3.3c-.2 0-.4-.2-.4-.5s.2-.6.4-.6c.3 0 .5.3.5.6s-.2.5-.5.5zm1.4-6.3h.6v2.3l.4-.4.6-.1c.6 0 1 .4 1 1.5v2.9h-.7V140c0-.6 0-1-.5-1-.4 0-.6.2-.7.6V143h-.7v-6.2zm4.8 6.3c-.8 0-1.4-.7-1.4-2.3 0-1.6.7-2.2 1.5-2.2s1.4.7 1.4 2.2c0 1.7-.8 2.3-1.5 2.3zm0-.6c.7 0 .8-1 .8-1.7s-.1-1.7-.8-1.7c-.6 0-.7 1-.7 1.7s.1 1.7.8 1.7zm2.1-.2l.7.2c.4 0 .7-.2.7-.6 0-.4-.1-.6-.6-.9-.6-.4-.9-.7-.9-1.2 0-.7.6-1.2 1.2-1.2.4 0 .6 0 .8.2l-.2.5a1 1 0 00-.6-.2c-.3 0-.5.3-.5.6s.1.4.5.7c.5.3 1 .7 1 1.4 0 .8-.7 1.2-1.4 1.2-.3 0-.7 0-.8-.2l.1-.5zm3.6-4.7v1h.8v.6h-.8v2.6c0 .5.2.7.4.7h.3v.5a1.5 1.5 0 01-.5 0c-.2 0-.5 0-.6-.2-.2-.2-.3-.5-.3-1.1V139h-.5v-.6h.5v-.7l.7-.3zm1.8 2.2c-.2 0-.4-.2-.4-.5s.2-.6.5-.6c.2 0 .4.3.4.6s-.2.5-.4.5zm0 3.3c-.2 0-.4-.2-.4-.5s.2-.6.5-.6c.2 0 .4.3.4.6s-.2.5-.4.5zm-14.4 5.7c-.3 0-.5-.2-.5-.5s.2-.6.5-.6.4.3.4.6-.1.5-.4.5zm0 3.3c-.3 0-.5-.2-.5-.5s.2-.6.5-.6.4.3.4.6-.1.5-.4.5zm1.3-3.1v-1.4h.6v.6c.3-.5.6-.6 1-.6.7 0 1.2.8 1.2 2.2 0 1.6-.6 2.3-1.3 2.3a.8.8 0 01-.8-.5v2.1H26V149zm.7 1.4v.4c.2.6.5.7.7.7.5 0 .7-.8.7-1.7 0-.9-.2-1.6-.7-1.6-.3 0-.6.4-.7.8V150.3zm5.2.6v1h-.6v-.5a1 1 0 01-1 .6c-.5 0-1-.5-1-1.3 0-1 1-1.6 2-1.6v-.1c0-.6-.2-1-.8-1-.3 0-.5 0-.7.2l-.2-.4c.2-.2.6-.3 1-.3 1 0 1.3.5 1.3 1.5v1.9zm-.7-1.3c-.3 0-1.2.1-1.2 1 0 .6.3.8.6.8s.5-.2.6-.6v-1.2zm2.4-3v1h.9v.5h-.9v2.6c0 .5.2.7.5.7h.3v.5a1.5 1.5 0 01-.5 0c-.3 0-.5 0-.7-.2-.2-.2-.2-.5-.2-1.1V148h-.6v-.6h.6v-.7l.6-.3zm1.5-1h.7v2.4l.4-.4.6-.1c.5 0 1 .4 1 1.5v2.9H37V149c0-.6-.1-1-.6-1-.3 0-.6.2-.7.6V152H35v-6.2zm4 3c-.2 0-.4-.1-.4-.4s.2-.6.5-.6c.2 0 .4.3.4.6s-.2.5-.4.5zm0 3.4c-.2 0-.4-.2-.4-.5s.2-.6.5-.6c.2 0 .4.3.4.6s-.2.5-.4.5zm-15.8 7.9v1h-.6v-.5a1 1 0 01-1 .6c-.5 0-1-.5-1-1.3 0-1 1-1.6 1.9-1.6v-.1c0-.6-.2-1-.7-1-.3 0-.5 0-.7.2l-.2-.4c.2-.2.6-.3 1-.3 1 0 1.3.5 1.3 1.5v1.9zm-.7-1.3c-.4 0-1.2.1-1.2 1 0 .6.3.8.5.8.3 0 .6-.2.7-.6v-1.2zm3.8 2.2l-.7.1c-1 0-1.6-.7-1.6-2.2 0-1.2.6-2.2 1.7-2.2l.6.1-.1.6a1.1 1.1 0 00-.5-.1c-.7 0-1 .8-1 1.6 0 1 .4 1.7 1 1.7l.5-.1v.5zm2.7 0l-.8.1c-1 0-1.6-.7-1.6-2.2 0-1.2.7-2.2 1.8-2.2l.6.1-.2.6a1.1 1.1 0 00-.5-.1c-.7 0-1 .8-1 1.6 0 1 .4 1.7 1 1.7l.6-.1v.5zm1-2c0 1.3.5 1.6 1 1.6.3 0 .6 0 .7-.2l.1.5c-.2.2-.6.2-1 .2-1 0-1.5-.8-1.5-2.1 0-1.5.6-2.3 1.5-2.3s1.2.9 1.2 1.9v.4h-2zm1.3-.5c0-1-.3-1.3-.6-1.3-.5 0-.7.7-.7 1.3h1.3zm1.4-.4v-1.4h.6v.6c.3-.5.7-.6 1-.6.8 0 1.3.8 1.3 2.2 0 1.6-.7 2.3-1.4 2.3a.8.8 0 01-.7-.5v2.1h-.8V158zm.7 1.4v.4c.2.6.5.7.7.7.6 0 .8-.8.8-1.7 0-.9-.2-1.6-.8-1.6-.3 0-.6.4-.6.8V159.3zm3.8-3.8v1h.8v.6h-.8v2.6c0 .5.2.7.4.7h.3v.5a1.5 1.5 0 01-.5 0c-.2 0-.5 0-.6-.2-.2-.2-.3-.5-.3-1.1V157h-.5v-.6h.5v-.7l.7-.3zm1.8 2.2c-.2 0-.4-.2-.4-.5s.2-.6.5-.6c.2 0 .4.3.4.6s-.2.5-.4.5zm0 3.3c-.2 0-.4-.2-.4-.5s.2-.6.5-.6c.2 0 .4.3.4.6s-.2.5-.4.5zm-28 7.7v1.2h-.5v-.5h-.1a1.1 1.1 0 01-1 .6c-.7 0-1-.6-1-1.7v-2.8h.7v2.7c0 .7.1 1.2.6 1.2.4 0 .6-.4.6-.6v-3.3h.7v3.2zm.9.5l.7.2c.4 0 .6-.2.6-.6 0-.4 0-.6-.5-.9-.6-.4-.9-.7-.9-1.2 0-.7.5-1.2 1.2-1.2.3 0 .6 0 .8.2l-.2.5a1 1 0 00-.6-.2c-.4 0-.5.3-.5.6s0 .4.5.7c.5.3.9.7.9 1.4 0 .8-.6 1.2-1.3 1.2-.3 0-.7 0-.9-.2l.2-.5zm3.2-1.4c0 1.3.5 1.6 1 1.6.3 0 .6 0 .7-.2l.2.5c-.3.2-.6.2-1 .2-1 0-1.6-.8-1.6-2.1 0-1.5.6-2.3 1.5-2.3s1.2.9 1.2 1.9v.4h-2zm1.4-.5c0-1-.3-1.3-.7-1.3-.4 0-.7.7-.7 1.3h1.4zm1.4-.6v-1.2h.6v.7c.2-.4.5-.7 1-.7v.7c-.5 0-.8.4-1 .9a2.6 2.6 0 000 .4v2.4H18v-3.2zm4 .6v.5h-2v-.5h2zm3 1.6v1h-.6v-.5a1 1 0 01-.9.6c-.6 0-1-.5-1-1.3 0-1 .8-1.6 1.8-1.6v-.1c0-.6-.1-1-.7-1-.2 0-.5 0-.7.2l-.1-.4c.1-.2.5-.3 1-.3.8 0 1.2.5 1.2 1.5v1.9zm-.7-1.3c-.3 0-1.2.1-1.2 1 0 .6.3.8.6.8s.5-.2.6-.6v-1.2zm4.3 1.7c0 1.2-.1 1.6-.4 2a2 2 0 01-2.1.2l.1-.6.8.2c.6 0 1-.3 1-1.3v-.4a.9.9 0 01-1 .5c-.7 0-1.2-.9-1.2-2.2 0-1.6.7-2.2 1.4-2.2.4 0 .7.3.8.5v-.5h.7v3.8zM28 167v-.3c0-.3-.2-.6-.6-.6-.5 0-.8.6-.8 1.6 0 1.1.4 1.6.8 1.6.2 0 .5 0 .6-.6a1.2 1.2 0 000-.4V167zm2.2.8c0 1.3.5 1.6 1 1.6.3 0 .6 0 .7-.2l.1.5c-.2.2-.6.2-1 .2-1 0-1.5-.8-1.5-2.1 0-1.5.6-2.3 1.5-2.3.8 0 1.2.9 1.2 1.9v.4h-2zm1.3-.5c0-1-.3-1.3-.6-1.3-.5 0-.7.7-.7 1.3h1.3zm1.5-.6v-1.2h.5v.6c.3-.4.6-.6 1-.6.7 0 1.1.4 1.1 1.5v2.9h-.7V167c0-.5 0-1-.6-1-.3 0-.5.2-.6.7V169.9h-.7v-3.2zm4.4-2.2v1h.8v.6h-.8v2.6c0 .5.2.7.4.7h.3v.5a1.5 1.5 0 01-.5 0c-.2 0-.5 0-.6-.2-.2-.2-.3-.5-.3-1.1V166h-.5v-.6h.5v-.7l.7-.3zm1.8 2.2c-.2 0-.4-.2-.4-.5s.2-.6.5-.6c.2 0 .4.3.4.6s-.2.5-.4.5zm0 3.3c-.2 0-.4-.2-.4-.5s.2-.6.5-.6c.2 0 .4.3.4.6s-.2.5-.4.5zm7.8-45.3a3 3 0 01-1 .2c-.6 0-1-.1-1.5-.5-.4-.5-.7-1.3-.7-2.5 0-2.3 1.2-3.1 2.3-3.1l.9.1-.2.6-.7-.1c-.7 0-1.6.6-1.6 2.5 0 1.8.7 2.5 1.5 2.5l.4-.1v-2h-.8v-.6H47v3zm3.2-2.7h-1.5v2.3h1.7v.6H48v-6h2.3v.5h-1.6v2H50v.6zm1.7-2.6h-1.1v-.6h2.9v.6h-1.1v5.5h-.7v-5.5zm-7.9 8.3h.7v2.3l.4-.4.6-.1c.5 0 1 .4 1 1.5v2.9h-.7V131c0-.6-.1-1-.6-1-.3 0-.6.2-.7.6V134H44v-6.2zm4.5.8v1h.8v.6h-.8v2.6c0 .5.1.7.4.7h.3v.5a1.5 1.5 0 01-.5 0c-.3 0-.5 0-.7-.2-.2-.2-.2-.5-.2-1.1V130H47v-.6h.6v-.7l.7-.3zm2.2 0v1h.9v.6h-.9v2.6c0 .5.2.7.5.7h.3v.5a1.5 1.5 0 01-.5 0c-.3 0-.5 0-.7-.2-.2-.2-.2-.5-.2-1.1V130h-.6v-.6h.6v-.7l.6-.3zm1.5 2.4v-1.4h.6v.6c.3-.5.6-.6 1-.6.7 0 1.2.8 1.2 2.2 0 1.6-.7 2.3-1.3 2.3a.8.8 0 01-.8-.5v2.1H52V131zm.7 1.4v.4c.1.6.5.7.6.7.6 0 .8-.8.8-1.7 0-.9-.2-1.6-.8-1.6-.3 0-.6.4-.6.8V132.3zm2.8.9l.7.2c.4 0 .6-.2.6-.6 0-.4-.1-.6-.6-.9-.5-.4-.8-.7-.8-1.2 0-.7.5-1.2 1.2-1.2.3 0 .6 0 .7.2l-.1.5a1 1 0 00-.6-.2c-.4 0-.6.3-.6.6s.1.4.6.7c.5.3.9.7.9 1.4 0 .8-.6 1.2-1.3 1.2-.4 0-.7 0-.9-.2l.2-.5zm-11.2 7.6c0 1.3.5 1.6 1 1.6.3 0 .6 0 .7-.2l.2.5c-.3.2-.7.2-1 .2-1 0-1.6-.8-1.6-2.1 0-1.5.6-2.3 1.5-2.3s1.2.9 1.2 1.9v.4h-2zm1.4-.5c0-1-.3-1.3-.7-1.3-.4 0-.7.7-.7 1.3h1.4zm1.7-1.8l.4 1 .3.7.3-.7.4-1h.7l-1 2.2 1 2.2h-.8l-.4-1-.3-.7-.3.7-.4 1h-.7l1-2.2-1-2.2h.8zm5 3.4v1H52v-.5a1 1 0 01-1 .6c-.5 0-1-.5-1-1.3 0-1 .9-1.6 1.9-1.6v-.1c0-.6-.2-1-.7-1-.3 0-.5 0-.7.2l-.2-.4c.2-.2.6-.3 1-.3.9 0 1.3.5 1.3 1.5v1.9zm-.7-1.3c-.4 0-1.2.1-1.2 1 0 .6.3.8.5.8.3 0 .6-.2.7-.6v-1.2zm1.7-1v-1h.5v.5a1 1 0 011-.6c.5 0 .8.2 1 .6l.4-.5.6-.1c.6 0 1 .4 1 1.5v2.9h-.6v-2.7c0-.6-.1-1.2-.6-1.2-.3 0-.6.3-.7.7V142.9h-.7V140c0-.4 0-1-.6-1-.3 0-.5.3-.6.8a2.3 2.3 0 000 .3v2.8h-.7v-3.2zm5.5.3v-1.4h.6v.6c.3-.5.6-.6 1-.6.7 0 1.2.8 1.2 2.2 0 1.6-.6 2.3-1.3 2.3a.8.8 0 01-.8-.5v2.1H59V140zm.7 1.4v.4c.2.6.5.7.7.7.6 0 .7-.8.7-1.7 0-.9-.2-1.6-.7-1.6-.3 0-.6.4-.7.8V141.3zm3-4.6h.6v6.2h-.7v-6.2zm2.1 4c0 1.4.6 1.7 1 1.7s.6 0 .8-.2v.5c-.2.2-.5.2-.9.2-1 0-1.5-.8-1.5-2.1 0-1.5.5-2.3 1.4-2.3.9 0 1.3.9 1.3 1.9v.4h-2zm1.4-.4c0-1-.3-1.3-.7-1.3-.4 0-.6.7-.7 1.3h1.4zm1.7 2.7c-.2 0-.4-.2-.4-.6 0-.3.2-.5.4-.5.3 0 .5.2.5.5 0 .4-.2.6-.5.6zm3.5-.2l-.7.1c-1 0-1.6-.7-1.6-2.2 0-1.2.6-2.2 1.7-2.2l.6.1-.1.6a1.1 1.1 0 00-.5-.1c-.7 0-1 .8-1 1.6 0 1 .4 1.7 1 1.7l.5-.1v.5zm1.8.2c-.8 0-1.5-.7-1.5-2.3 0-1.6.8-2.2 1.5-2.2.8 0 1.4.7 1.4 2.2 0 1.7-.8 2.3-1.4 2.3zm0-.6c.6 0 .7-1 .7-1.7s-.1-1.7-.7-1.7-.8 1-.8 1.7.2 1.7.8 1.7zm2.2-2.7v-1.2h.6v.6a1 1 0 011-.6c.4 0 .7.2.9.6l.4-.5.6-.1c.6 0 1 .4 1 1.5v2.9h-.6v-2.7c0-.6 0-1.2-.6-1.2-.3 0-.5.3-.6.7V142.9h-.8V140c0-.4 0-1-.6-1-.2 0-.5.3-.6.8a2.3 2.3 0 000 .3v2.8h-.7v-3.2zm-31.9 12.6l2-6.5h.5l-2 6.5h-.5zm3-3.6l-.1-1.2h.6v.7c.2-.4.6-.7 1-.7h.1v.7H48c-.5 0-.8.4-.8.9a2.6 2.6 0 000 .4v2.4h-.8v-3.2zm2.5 1c0 1.4.6 1.7 1 1.7s.6 0 .8-.2l.1.5c-.2.2-.6.2-1 .2-1 0-1.5-.8-1.5-2.1 0-1.5.6-2.3 1.4-2.3 1 0 1.3.9 1.3 1.9v.4h-2zm1.4-.4c0-1-.3-1.3-.6-1.3-.5 0-.7.7-.8 1.3h1.4zm1.3 1.9l.7.2c.4 0 .6-.2.6-.6 0-.4 0-.6-.5-.9-.6-.4-.9-.7-.9-1.2 0-.7.5-1.2 1.2-1.2.3 0 .6 0 .8.2l-.2.5a1 1 0 00-.6-.2c-.4 0-.5.3-.5.6s0 .4.5.7c.5.3.9.7.9 1.4 0 .8-.6 1.2-1.3 1.2-.3 0-.7 0-.9-.2l.2-.5zm4 .8c-.8 0-1.5-.7-1.5-2.3 0-1.6.7-2.2 1.5-2.2s1.4.7 1.4 2.2c0 1.7-.8 2.3-1.5 2.3zm0-.6c.6 0 .7-1 .7-1.7s-.1-1.7-.7-1.7c-.7 0-.8 1-.8 1.7s.1 1.7.8 1.7zm4.8-.7v1.2H60v-.5a1.1 1.1 0 01-1 .6c-.7 0-1-.6-1-1.7v-2.8h.6v2.7c0 .7.1 1.2.6 1.2.4 0 .6-.4.6-.6v-3.3h.8v3.2zm1-2l-.1-1.2h.6v.7c.2-.4.6-.7 1-.7h.1v.7H63c-.4 0-.8.4-.8.9a2.6 2.6 0 000 .4v2.4h-.8v-3.2zm4.2 3c-.2.2-.4.2-.7.2-1 0-1.6-.7-1.6-2.2 0-1.2.6-2.2 1.7-2.2l.6.1-.1.6a1.1 1.1 0 00-.5-.1c-.7 0-1 .8-1 1.6 0 1 .3 1.7 1 1.7l.5-.1v.5zm1-2c0 1.4.5 1.7 1 1.7.3 0 .6 0 .7-.2l.2.5c-.3.2-.6.2-1 .2-1 0-1.6-.8-1.6-2.1 0-1.5.6-2.3 1.5-2.3s1.2.9 1.2 1.9v.4h-2zm1.4-.4c0-1-.3-1.3-.7-1.3-.4 0-.7.7-.7 1.3h1.4zm-23.9 6.6c-.2 0-.4-.2-.4-.5s.2-.4.4-.4c.3 0 .5.1.5.4s-.2.5-.5.5zm-.3 5v-4.4h.7v4.4H44zm1.7-3.2v-1.2h.5v.6h.1a1 1 0 011-.6c.4 0 .7.2.9.6l.4-.5.6-.1c.6 0 1 .4 1 1.5v2.9h-.6v-2.7c0-.6 0-1.2-.6-1.2-.3 0-.5.3-.6.7V160.9h-.8V158c0-.4 0-1-.6-1-.3 0-.5.3-.6.8a2.3 2.3 0 000 .3v2.8h-.7v-3.2zm7.8 2.2v1H53v-.5h-.1a1 1 0 01-.9.6c-.6 0-1-.5-1-1.3 0-1 .9-1.6 1.9-1.6v-.1c0-.6-.2-1-.7-1-.3 0-.6 0-.8.2l-.1-.4c.2-.2.6-.3 1-.3.9 0 1.2.5 1.2 1.5v1.9zm-.6-1.3c-.4 0-1.2.1-1.2 1 0 .6.3.8.5.8.3 0 .6-.2.6-.6v-1.2zm4.3 1.7c0 1.2-.2 1.6-.5 2-.2.2-.7.4-1.1.4a2 2 0 01-1-.2l.2-.6.8.2c.5 0 .9-.3.9-1.3v-.4a.9.9 0 01-.9.5c-.8 0-1.3-.9-1.3-2.2 0-1.6.8-2.2 1.4-2.2.5 0 .7.3.8.5v-.5h.7v3.8zm-.7-2.3v-.3c-.1-.3-.3-.6-.7-.6-.5 0-.8.6-.8 1.6 0 1.1.4 1.6.8 1.6.2 0 .5 0 .6-.6a1.2 1.2 0 000-.4V158zm2.1.8c0 1.3.5 1.6 1 1.6.3 0 .6 0 .7-.2l.2.5c-.3.2-.6.2-1 .2-1 0-1.6-.8-1.6-2.1 0-1.5.6-2.3 1.5-2.3s1.2.9 1.2 1.9v.4h-2zm1.4-.5c0-1-.3-1.3-.7-1.3-.4 0-.7.7-.7 1.3H60zm1 3l1.9-6.5h.5l-2 6.5H61zm2.2.8c.2 0 .4 0 .6-.3.1-.2.2-.6.2-1.4v-3.9h.7v4.1c0 1-.2 1.4-.5 1.7-.2.2-.7.4-1 .4v-.6zm1.1-6.2c-.2 0-.4-.2-.4-.5s.2-.4.4-.4c.3 0 .4.1.4.4s-.1.5-.4.5zm1.3 2v-1.4h.6v.6c.3-.5.6-.6 1-.6.7 0 1.2.8 1.2 2.2 0 1.6-.7 2.3-1.3 2.3a.8.8 0 01-.8-.5v2.1h-.7V158zm.7 1.4v.4c.2.6.5.7.7.7.5 0 .7-.8.7-1.7 0-.9-.2-1.6-.7-1.6-.4 0-.6.4-.7.8V159.3zm3.4-.5c0 1.3.5 1.6 1 1.6.3 0 .6 0 .7-.2l.1.5c-.2.2-.6.2-1 .2-1 0-1.5-.8-1.5-2.1 0-1.5.6-2.3 1.5-2.3s1.2.9 1.2 1.9v.4h-2zm1.3-.5c0-1-.3-1.3-.6-1.3-.4 0-.7.7-.7 1.3h1.3zm4 2c0 1.2 0 1.6-.3 2a2 2 0 01-2.1.2l.1-.6.8.2c.6 0 .9-.3.9-1.3v-.4a.9.9 0 01-.8.5c-.8 0-1.3-.9-1.3-2.2 0-1.6.7-2.2 1.3-2.2.5 0 .7.3.9.5v-.5h.6v3.8zm-.6-2.3v-.3c-.1-.3-.3-.6-.7-.6-.5 0-.7.6-.7 1.6 0 1.1.3 1.6.7 1.6.2 0 .5 0 .7-.6a1.2 1.2 0 000-.4V158zm-26.7 9.3v-2.4a33.4 33.4 0 01-.5 2.1l-.8 2.9H46l-.7-2.8a27.4 27.4 0 01-.5-2.2l-.1 2.4-.2 2.6h-.6l.4-6h.7l.7 2.7.5 2 .5-2 .7-2.8h.8l.3 6h-.6l-.2-2.5zm3 2.7c-.9 0-1.5-.7-1.5-2.3 0-1.6.7-2.2 1.5-2.2s1.4.7 1.4 2.2c0 1.7-.8 2.3-1.5 2.3zm0-.6c.6 0 .7-1 .7-1.7s-.1-1.7-.8-1.7c-.6 0-.7 1-.7 1.7s.1 1.7.8 1.7zm1.7 0l1.4-2.6.4-.7h-1.6v-.6h2.3v.5l-1.3 2.7-.4.6h1.7v.6h-2.5v-.4zm3.5-4.5c-.2 0-.4-.2-.4-.5s.2-.4.4-.4c.3 0 .4.1.4.4s-.1.5-.4.5zm-.3 5v-4.4h.7v4.4h-.7zm1.6-6.2h.7v6.2h-.7v-6.2zm1.8 0h.7v6.2h-.7v-6.2zm4 5.2v1h-.6v-.5a1 1 0 01-1 .6c-.5 0-1-.5-1-1.3 0-1 .9-1.6 1.9-1.6v-.1c0-.6-.2-1-.7-1-.3 0-.5 0-.7.2l-.2-.4c.2-.2.6-.3 1-.3 1 0 1.3.5 1.3 1.5v1.9zm-.7-1.3c-.4 0-1.2.1-1.2 1 0 .6.3.8.5.8.3 0 .6-.2.7-.6v-1.2zm1.2 2.7l2-6.5h.5l-2 6.5h-.5zm5.5-5.6h-1.6l-.2 1.5h.2c.3 0 .8.1 1.1.4.3.3.5.8.5 1.4 0 1.1-.7 2-1.8 2a2 2 0 01-1-.3l.2-.5.8.2c.6 0 1.1-.5 1.1-1.4 0-.9-.6-1.3-1.3-1.3h-.5l.4-2.7h2.1v.7zm1.4 5.3c-.3 0-.5-.2-.5-.6 0-.3.2-.5.5-.5.2 0 .4.2.4.5 0 .4-.1.6-.4.6zm2.5 0c-.9 0-1.4-1.1-1.4-3 0-2 .5-3 1.5-3s1.4 1 1.4 3-.6 3-1.5 3zm0-.6c.6 0 .8-1 .8-2.4s-.2-2.4-.7-2.4c-.6 0-.9 1-.9 2.4s.3 2.4.8 2.4zm4 .6c-.2 0-.4-.2-.4-.6 0-.3.2-.5.5-.5s.4.2.4.5c0 .4-.1.6-.4.6zm1.8 0c-.2 0-.4-.2-.4-.6 0-.3.2-.5.4-.5.3 0 .5.2.5.5 0 .4-.2.6-.5.6zm1.8 0c-.3 0-.5-.2-.5-.6 0-.3.2-.5.5-.5s.4.2.4.5c0 .4-.1.6-.4.6zM4.6 106.8v2.6h1.7v-2.6H7v6h-.7V110H4.6v2.8H4v-6h.7zm5.7 3.2H8.8v2.2h1.7v.6H8.1v-6h2.3v.6H8.8v2h1.5v.6zm1.7 1l-.4 1.8H11l1.4-6h.8l1.3 6h-.7l-.3-1.8H12zm1.3-.5l-.4-1.6-.2-1.4-.3 1.4-.3 1.6h1.2zm1.9-3.6l1-.2c.6 0 1 .2 1.3.5.5.4.9 1.2.9 2.5s-.4 2.1-.8 2.5c-.4.5-1 .7-1.6.7a4 4 0 01-.8 0v-6zm.7 5.4h.2c.8 0 1.5-.6 1.5-2.6 0-1.6-.4-2.4-1.4-2.4h-.3v5zm5.5-2.3H20v2.2h1.7v.6h-2.4v-6h2.3v.6H20v2h1.5v.6zm1-3.1a4 4 0 011-.2c.6 0 1 .2 1.3.5.3.3.5.7.5 1.2 0 .7-.4 1.2-1 1.5.4.2.7.6.8 1.4l.4 1.5h-.7c-.1-.1-.3-.7-.4-1.5-.1-.8-.4-1.1-1-1.1h-.2v2.6h-.7v-6zm.7 2.8h.3c.6 0 1-.5 1-1.3 0-.7-.2-1-1-1.1h-.3v2.4zm2.8 2.3c.2.2.6.3.9.3.6 0 1-.4 1-1s-.3-1-.8-1.3c-.5-.3-1.1-1-1.1-1.7 0-1 .6-1.6 1.6-1.6l.8.2-.2.6a1.3 1.3 0 00-.7-.2c-.6 0-.8.5-.8.9 0 .6.3.8.8 1.2.8.6 1.1 1.1 1.1 1.8 0 1-.7 1.7-1.7 1.7a2 2 0 01-1-.3l.1-.6zm5 .8V109h-.6v-.5h.5v-.3c0-.5 0-1 .4-1.3a1.2 1.2 0 01.9-.4l.5.1-.1.6a1 1 0 00-.4 0c-.5 0-.6.4-.6 1v.3h.8v.5h-.8v3.8h-.7zm1.8-3.2v-1.1h.6v.7c.2-.5.6-.8 1-.8h.1v.7h-.1c-.5 0-.8.4-.9 1a2.6 2.6 0 000 .3v2.4h-.7v-3.2zm4.5 2.2v1h-.6v-.4a1 1 0 01-1 .5c-.5 0-1-.5-1-1.2 0-1.1 1-1.6 1.9-1.6v-.2c0-.5-.1-1-.7-1-.3 0-.5.1-.7.3l-.2-.5c.2-.1.6-.3 1-.3 1 0 1.3.6 1.3 1.6v1.8zm-.7-1.2c-.3 0-1.2 0-1.2 1 0 .6.3.8.6.8s.5-.3.6-.7a1.2 1.2 0 000-.2v-1zm1.7-1v-1.1h.5v.5h.1a1 1 0 011-.6c.4 0 .7.2.9.7a1.5 1.5 0 01.4-.5l.6-.2c.6 0 1 .4 1 1.5v3h-.6V110c0-.6 0-1.1-.6-1.1-.3 0-.5.2-.6.6V112.8H40V110c0-.5 0-1-.6-1-.2 0-.5.2-.6.7a2.3 2.3 0 000 .4v2.7h-.7v-3.2zm6 1.1c0 1.4.6 1.6 1 1.6l.8-.1.1.5-1 .2c-1 0-1.5-.9-1.5-2.2 0-1.4.6-2.3 1.4-2.3 1 0 1.3 1 1.3 2v.3h-2zm1.4-.5c0-.9-.3-1.3-.6-1.3-.5 0-.7.7-.8 1.3h1.4zm4.4-3.6c-.5.8-1 2-1 3.7 0 1.6.5 2.8 1 3.6h-.5c-.5-.7-1-1.9-1-3.6 0-1.8.5-3 1-3.7h.5zm.6 5.4c.2.2.6.3.9.3.6 0 1-.4 1-1s-.3-1-.8-1.3c-.5-.3-1.1-1-1.1-1.7 0-1 .6-1.6 1.6-1.6l.8.2-.1.6a1.3 1.3 0 00-.8-.2c-.6 0-.8.5-.8.9 0 .6.3.8.8 1.2.8.6 1.1 1.1 1.1 1.8 0 1-.7 1.7-1.7 1.7a2 2 0 01-1-.3l.1-.6zm4.2-4.5v1h.8v.5h-.8v2.6c0 .6.2.7.4.7h.3v.5a1.5 1.5 0 01-.5 0c-.3 0-.5 0-.7-.2l-.2-1V109h-.6v-.5h.6v-.8l.7-.2zm1.4 2.1v-1.1h.6v.7c.2-.5.6-.8 1-.8h.1v.7h-.1c-.5 0-.8.4-.9 1a2.6 2.6 0 000 .3v2.4h-.7v-3.2zm2.6 1.1c0 1.4.5 1.6 1 1.6l.8-.1v.5l-.9.2c-1 0-1.6-.9-1.6-2.2 0-1.4.6-2.3 1.5-2.3s1.2 1 1.2 2v.3h-2zm1.4-.5c0-.9-.3-1.3-.7-1.3-.4 0-.7.7-.7 1.3h1.4zm3.7 1.6v1h-.6v-.4a1 1 0 01-1 .5c-.5 0-1-.5-1-1.2 0-1.1 1-1.6 1.9-1.6v-.2c0-.5-.2-1-.7-1-.3 0-.5.1-.7.3l-.2-.5c.2-.1.6-.3 1-.3 1 0 1.3.6 1.3 1.6v1.8zm-.7-1.2c-.3 0-1.2 0-1.2 1 0 .6.3.8.5.8.4 0 .6-.3.7-.7a1.2 1.2 0 000-.2v-1zm1.7-1v-1.1h.5v.5h.1a1 1 0 011-.6c.4 0 .7.2.9.7a1.5 1.5 0 01.4-.5l.6-.2c.6 0 1 .4 1 1.5v3h-.6V110c0-.6 0-1.1-.6-1.1-.3 0-.6.2-.7.6V112.8h-.7V110c0-.5 0-1-.6-1-.3 0-.5.2-.6.7a2.3 2.3 0 000 .4v2.7h-.7v-3.2zm8.2-2l-1 .6-.2-.5 1.3-.7h.5v5.8h-.6v-5.1zm2 6.3c.5-.8.9-2 .9-3.6 0-1.7-.4-2.9-1-3.7h.6c.5.7 1 1.9 1 3.7 0 1.7-.5 3-1 3.6h-.5z"/><path fill="#b2d4eb" fill-rule="evenodd" d="M126 116.8h82.4V129H126z" clip-rule="evenodd"/><path fill="none" stroke="#000" stroke-linecap="round" stroke-linejoin="round" d="M126 116.8h82.4V129H126z"/><path d="M137.2 121.7c-.2 0-.4-.2-.4-.5s.2-.6.5-.6c.2 0 .4.3.4.6s-.2.5-.4.5zm0 3.3c-.2 0-.4-.2-.4-.5s.2-.6.5-.6c.2 0 .4.3.4.6s-.2.5-.4.5zm1.4-3.1v-1.4h.6v.6c.3-.5.6-.6 1-.6.7 0 1.2.8 1.2 2.2 0 1.6-.7 2.3-1.3 2.3a.8.8 0 01-.8-.5v2.1h-.7V122zm.7 1.4v.4c.1.6.4.7.6.7.6 0 .8-.8.8-1.7 0-.9-.2-1.6-.8-1.6-.3 0-.6.4-.6.8V123.3zm5.2.6v1h-.6v-.5a1 1 0 01-1 .6c-.5 0-1-.5-1-1.3 0-1 .9-1.6 1.9-1.6v-.1c0-.6-.2-1-.7-1-.3 0-.5 0-.7.2l-.2-.4c.2-.2.6-.3 1-.3 1 0 1.3.5 1.3 1.5v1.9zm-.7-1.3c-.4 0-1.2.1-1.2 1 0 .6.3.8.5.8.3 0 .6-.2.7-.6v-1.2zm2.4-3v1h.9v.5h-.9v2.6c0 .5.2.7.5.7h.2v.5a1.5 1.5 0 01-.4 0c-.3 0-.5 0-.7-.2-.2-.2-.3-.5-.3-1.1V121h-.5v-.6h.5v-.7l.7-.3zm1.5-1h.7v2.4a1.3 1.3 0 01.3-.4l.6-.1c.6 0 1 .4 1 1.5v2.9h-.6V122c0-.6-.2-1-.6-1-.4 0-.6.2-.7.6V125h-.7v-6.2zm4 3c-.2 0-.4-.1-.4-.4s.2-.6.4-.6c.3 0 .5.3.5.6s-.2.5-.5.5zm0 3.4c-.2 0-.4-.2-.4-.5s.2-.6.4-.6c.3 0 .5.3.5.6s-.2.5-.5.5zm4.4.3l2-6.5h.4l-2 6.5h-.4zm3-3.6l-.1-1.2h.6v.6c.2-.4.6-.6 1-.6.6 0 1 .4 1 1.5v2.9h-.6V122c0-.5-.1-1-.6-1-.3 0-.6.2-.7.7V124.9h-.7v-3.2zm4 1c0 1.4.6 1.7 1 1.7s.6 0 .8-.2l.1.5c-.2.2-.6.2-1 .2-1 0-1.5-.8-1.5-2.1 0-1.5.6-2.3 1.4-2.3 1 0 1.3.9 1.3 1.9v.4h-2zm1.4-.4c0-1-.3-1.3-.6-1.3-.5 0-.7.7-.7 1.3h1.3zm1.8-1.8l.4 2.2.2 1.4.3-1.4.5-2.2h.6l.5 2.1.2 1.5.3-1.4.4-2.2h.7l-1 4.4h-.7l-.5-2.1a12.4 12.4 0 01-.2-1.3 13.4 13.4 0 01-.3 1.3l-.5 2.1h-.6l-1-4.4h.7zm8.7 5v.5h-4.5v-.4h4.5zm.5-3.8v-1.2h.6v.7c.2-.4.6-.7 1-.7h.1v.7h-.1c-.5 0-.8.4-.9.9a2.5 2.5 0 000 .4v2.4h-.7v-3.2zm2.6 1c0 1.4.5 1.7 1 1.7.3 0 .6 0 .8-.2v.5c-.2.2-.5.2-.9.2-1 0-1.6-.8-1.6-2.1 0-1.5.6-2.3 1.5-2.3s1.2.9 1.2 1.9v.4h-2zm1.4-.4c0-1-.3-1.3-.7-1.3-.4 0-.7.7-.7 1.3h1.4zm1.3 1.9l.7.2c.4 0 .6-.2.6-.6 0-.4-.1-.6-.5-.9-.6-.4-1-.7-1-1.2 0-.7.6-1.2 1.3-1.2.3 0 .6 0 .8.2l-.2.5a1 1 0 00-.6-.2c-.4 0-.6.3-.6.6s.1.4.6.7c.5.3.9.8.9 1.4 0 .8-.6 1.3-1.3 1.3-.4 0-.7-.1-.9-.3l.2-.5zm4 .8c-.9 0-1.5-.7-1.5-2.3 0-1.6.7-2.2 1.5-2.2.7 0 1.4.7 1.4 2.2 0 1.7-.8 2.3-1.5 2.3zm0-.6c.5 0 .7-1 .7-1.7s-.2-1.7-.8-1.7c-.6 0-.7 1-.7 1.7s.1 1.7.7 1.7zm4.8-.7v1.2h-.6v-.5a1.1 1.1 0 01-1 .6c-.8 0-1-.6-1-1.7v-2.8h.6v2.7c0 .7.1 1.2.6 1.2.4 0 .6-.4.6-.6v-3.3h.7v3.2zm1-2l-.1-1.2h.6v.7c.2-.4.6-.7 1-.7h.1v.7h-.1c-.5 0-.8.4-.9.9a2.6 2.6 0 000 .4v2.4h-.7v-3.2zm4.2 3c-.2.2-.5.2-.8.2-1 0-1.6-.7-1.6-2.2 0-1.2.7-2.2 1.8-2.2l.6.1-.2.6a1.1 1.1 0 00-.5-.1c-.7 0-1 .8-1 1.6 0 1 .4 1.7 1 1.7l.6-.1v.5zm1-2c0 1.4.5 1.7 1 1.7.3 0 .6 0 .7-.2l.1.5c-.2.2-.6.2-1 .2-1 0-1.5-.8-1.5-2.1 0-1.5.6-2.3 1.5-2.3s1.2.9 1.2 1.9v.4h-2zm1.3-.4c0-1-.3-1.3-.6-1.3-.5 0-.7.7-.7 1.3h1.3zm-70-15.5v2.6h1.8v-2.6h.7v6h-.7V110h-1.7v2.8h-.7v-6h.7zm5.8 3.2h-1.5v2.2h1.7v.6h-2.4v-6h2.3v.6h-1.6v2h1.5v.6zm1.7 1l-.4 1.8h-.7l1.4-6h.8l1.3 6h-.7l-.4-1.8h-1.3zm1.2-.5l-.3-1.6-.2-1.4-.3 1.4-.3 1.6h1.1zm2-3.6l.9-.2c.6 0 1 .2 1.4.5.5.4.8 1.2.8 2.5s-.3 2.1-.7 2.5c-.4.5-1 .7-1.7.7a4 4 0 01-.7 0v-6zm.7 5.4h.2c.8 0 1.5-.6 1.5-2.6 0-1.6-.4-2.4-1.4-2.4h-.3v5zm5.5-2.3h-1.5v2.2h1.7v.6h-2.4v-6h2.3v.6h-1.6v2h1.5v.6zm1-3.1a4 4 0 011-.2c.6 0 1 .2 1.3.5.3.3.4.7.4 1.2 0 .7-.3 1.2-1 1.5.5.2.8.6.9 1.4l.3 1.5h-.7l-.3-1.5c-.1-.8-.4-1.1-1-1.1h-.3v2.6h-.6v-6zm.6 2.8h.3c.7 0 1.1-.5 1.1-1.3 0-.7-.2-1-1-1.1h-.4v2.4zm2.9 2.3c.2.2.6.3.9.3.6 0 1-.4 1-1s-.3-1-.8-1.3c-.5-.3-1.2-1-1.2-1.7 0-1 .7-1.6 1.6-1.6l.9.2-.2.6a1.3 1.3 0 00-.7-.2c-.6 0-.9.5-.9.9 0 .6.3.8 1 1.2.6.6 1 1.1 1 1.8 0 1-.8 1.7-1.7 1.7a2 2 0 01-1-.3l.1-.6zm4.9.8V109h-.6v-.5h.6v-.3c0-.5 0-1 .4-1.3.2-.3.6-.4.8-.4l.6.1-.1.6a1 1 0 00-.4 0c-.5 0-.6.4-.6 1v.3h.8v.5h-.8v3.8h-.7zm1.9-3.2v-1.1h.6v.7c.2-.5.5-.8 1-.8v.7c-.5 0-.8.4-.9 1a2.6 2.6 0 000 .3v2.4h-.7v-3.2zm4.5 2.2v1h-.6v-.4a1 1 0 01-1 .5c-.5 0-1-.5-1-1.2 0-1.1.9-1.6 1.9-1.6v-.2c0-.5-.2-1-.7-1-.3 0-.5.1-.7.3l-.2-.5c.2-.1.6-.3 1-.3.9 0 1.3.6 1.3 1.6v1.8zm-.7-1.2c-.4 0-1.2 0-1.2 1 0 .6.3.8.5.8.3 0 .6-.3.7-.7a1.2 1.2 0 000-.2v-1zm1.6-1v-1.1h.6v.5a1 1 0 011-.6c.5 0 .8.2 1 .7.1-.3.3-.4.4-.5l.6-.2c.6 0 1 .4 1 1.5v3h-.6V110c0-.6-.1-1.1-.6-1.1-.3 0-.6.2-.7.6V112.8h-.7V110c0-.5 0-1-.6-1-.3 0-.5.2-.6.7a2.2 2.2 0 000 .4v2.7h-.7v-3.2zm6.1 1.1c0 1.4.5 1.6 1 1.6l.8-.1v.5l-.9.2c-1 0-1.6-.9-1.6-2.2 0-1.4.6-2.3 1.5-2.3s1.2 1 1.2 2v.3h-2zm1.4-.5c0-.9-.3-1.3-.7-1.3-.4 0-.7.7-.7 1.3h1.4zm4.4-3.6c-.5.8-1 2-1 3.7 0 1.6.5 2.8 1 3.6h-.6c-.4-.7-1-1.9-1-3.6 0-1.8.6-3 1-3.7h.6zm.6 5.4c.2.2.6.3.9.3.6 0 1-.4 1-1s-.3-1-.8-1.3c-.5-.3-1.2-1-1.2-1.7 0-1 .7-1.6 1.6-1.6l.9.2-.2.6a1.3 1.3 0 00-.7-.2c-.6 0-.9.5-.9.9 0 .6.3.8 1 1.2.7.6 1 1.1 1 1.8 0 1-.8 1.7-1.7 1.7a2 2 0 01-1-.3l.1-.6zm4.1-4.5v1h.9v.5h-.9v2.6c0 .6.2.7.5.7h.3v.5a1.5 1.5 0 01-.5 0c-.3 0-.5 0-.7-.2-.2-.2-.3-.5-.3-1V109h-.5v-.5h.5v-.8l.7-.2zm1.5 2.1v-1.1h.6v.7c.2-.5.5-.8 1-.8v.7c-.5 0-.8.4-.9 1a2.5 2.5 0 000 .3v2.4h-.7v-3.2zm2.6 1.1c0 1.4.5 1.6 1 1.6l.7-.1.1.5-1 .2c-1 0-1.5-.9-1.5-2.2 0-1.4.6-2.3 1.5-2.3s1.2 1 1.2 2v.3h-2zm1.4-.5c0-.9-.4-1.3-.7-1.3-.4 0-.7.7-.7 1.3h1.4zm3.7 1.6v1h-.6v-.4a1 1 0 01-1 .5c-.5 0-1-.5-1-1.2 0-1.1.9-1.6 1.9-1.6v-.2c0-.5-.2-1-.7-1-.3 0-.5.1-.7.3l-.2-.5c.2-.1.6-.3 1-.3.9 0 1.3.6 1.3 1.6v1.8zm-.7-1.2c-.4 0-1.2 0-1.2 1 0 .6.3.8.5.8.3 0 .6-.3.7-.7v-1.2zm1.6-1v-1.1h.6v.5a1 1 0 011-.6c.4 0 .8.2 1 .7.1-.3.3-.4.4-.5l.6-.2c.6 0 1 .4 1 1.5v3h-.6V110c0-.6-.1-1.1-.6-1.1-.3 0-.6.2-.7.6V112.8h-.7V110c0-.5 0-1-.6-1-.3 0-.6.2-.6.7a2.2 2.2 0 000 .4v2.7h-.8v-3.2zm7 2.5l.8.2c.6 0 1-.4 1-1.1 0-.8-.5-1.2-1.2-1.2h-.1v-.6h.1c.4 0 1-.3 1-1 0-.6-.3-1-.7-1-.3 0-.6.2-.7.4l-.2-.6c.2-.1.6-.3 1-.3.9 0 1.3.6 1.3 1.4 0 .5-.3 1-.8 1.3.5.2 1 .7 1 1.6 0 1-.6 1.7-1.7 1.7a2 2 0 01-1-.3l.2-.5zm3.2 1.8c.5-.8 1-2 1-3.6 0-1.7-.5-2.9-1-3.7h.6c.4.7 1 1.9 1 3.7 0 1.7-.6 3-1 3.6h-.6zM126.5 1.6a4 4 0 011-.2c.6 0 1 .2 1.4.5.3.3.4.7.4 1.2 0 .7-.4 1.2-1 1.5.5.2.7.6.8 1.4l.4 1.5h-.7l-.4-1.5c0-.8-.3-1.1-1-1.1h-.2v2.6h-.7v-6zm.7 2.8h.3c.6 0 1-.5 1-1.3 0-.7-.2-1.1-1-1.1h-.3v2.4zm3.4 1c0 1.4.5 1.6 1 1.6l.8-.1v.5l-.9.2c-1 0-1.6-.9-1.6-2.2 0-1.4.6-2.3 1.5-2.3s1.2 1 1.2 2v.3h-2zM132 5c0-.9-.3-1.3-.7-1.3-.4 0-.7.7-.7 1.3h1.4zm3.3 2.2a1 1 0 01-.8.5c-.7 0-1.3-.8-1.3-2.2 0-1.5.6-2.3 1.4-2.3.2 0 .6.1.8.6v-.5h.7v6.1h-.8V7zm0-2.3v-.3c0-.4-.3-.8-.6-.8-.6 0-.8.8-.8 1.7 0 .9.2 1.6.8 1.6.2 0 .4-.1.6-.7V5zm4.3 1.5v1.2h-.6v-.4a1.1 1.1 0 01-1 .5c-.7 0-1-.6-1-1.7V3.2h.6v2.6c0 .7.2 1.2.6 1.2.4 0 .6-.4.7-.6V3.2h.7v3.1zm1.4-.9c0 1.4.6 1.6 1 1.6l.8-.1.1.5-1 .2c-1 0-1.5-.9-1.5-2.2 0-1.4.6-2.3 1.4-2.3 1 0 1.3 1 1.3 2v.3h-2zm1.4-.5c0-.9-.3-1.3-.6-1.3-.5 0-.7.7-.7 1.3h1.3zm1.3 2l.7.1c.4 0 .7-.2.7-.6 0-.3-.2-.6-.6-.8-.6-.4-.9-.8-.9-1.3 0-.7.5-1.2 1.2-1.2l.8.2-.2.6a1 1 0 00-.6-.2c-.3 0-.5.2-.5.5s0 .5.5.8c.5.3 1 .7 1 1.3 0 .9-.7 1.3-1.4 1.3-.3 0-.7-.1-.9-.3l.2-.5zm3.6-4.7v1h.8v.5h-.8v2.6c0 .6.2.7.4.7h.3v.5a1.5 1.5 0 01-.5 0c-.3 0-.5 0-.7-.2l-.2-1V3.6h-.6v-.5h.6v-.8l.7-.2zm3 5.3l.1-1.8h-.5v-.4h.6l.2-1.4h-.6v-.5h.6l.3-1.7h.4l-.2 1.7h.7l.2-1.7h.5l-.2 1.7h.5V4h-.6l-.2 1.4h.6v.4h-.6l-.3 1.8h-.4l.2-1.8h-.7l-.2 1.8h-.5zm1.4-2.2l.1-1.4h-.7l-.1 1.4h.7zm1.7 2.2v-.4l.5-.7c.7-1 1.5-2 1.5-3.2 0-.6-.3-1-.8-1-.4 0-.7.2-.9.3l-.1-.5a1.8 1.8 0 011.1-.4c1 0 1.4.7 1.4 1.6 0 1.1-.7 2.2-1.4 3.2l-.4.5h2v.6h-2.9z"/><path fill="#b2dec7" fill-rule="evenodd" d="M42.6 11.5H86v13H42.6z" clip-rule="evenodd"/><path fill="none" stroke="#000" stroke-linecap="round" stroke-linejoin="round" d="M42.6 11.5H86v13H42.6z"/><path d="M62.6 20.4a3 3 0 01-1 .2c-.6 0-1-.1-1.5-.5-.4-.5-.7-1.3-.7-2.5 0-2.3 1.2-3.1 2.3-3.1l.8.1-.1.6-.7-.1c-.8 0-1.6.6-1.6 2.5 0 1.8.7 2.5 1.4 2.5l.5-.1v-2h-.8v-.6h1.4v3zm3.2-2.7h-1.5V20H66v.6h-2.4v-6h2.3v.5h-1.6v2h1.5v.6zm1.7-2.6h-1.1v-.6h2.9v.6h-1.1v5.5h-.7V15zm26.6-5c-.2 0-.4-.2-.4-.5 0-.2.2-.4.4-.4.3 0 .4.2.4.4s-.1.5-.4.5zm-.3 5v-4.3h.7V15h-.7zm1.6-3.2v-1.1h.6v.5a1 1 0 011-.6c.4 0 .8.2 1 .6a1.5 1.5 0 01.4-.5l.6-.1c.6 0 1 .4 1 1.5v3h-.6v-2.8c0-.6-.1-1.1-.6-1.1-.3 0-.6.2-.7.6V15.1h-.7v-2.8c0-.5 0-1-.6-1-.3 0-.6.2-.7.7a2.3 2.3 0 000 .3v2.8h-.7V12zm5.6.2v-1.3h.6v.5c.3-.5.6-.6 1-.6.7 0 1.2.8 1.2 2.2 0 1.6-.6 2.3-1.3 2.3a.8.8 0 01-.8-.5v2.1h-.7v-4.7zm.7 1.4v.4c.2.6.5.7.7.7.5 0 .7-.8.7-1.7 0-.9-.2-1.6-.7-1.6-.4 0-.6.4-.7.8V13.5zm2.9-4.6h.7V15h-.7V9zm2 1.2c-.2 0-.4-.2-.4-.5 0-.2.2-.4.5-.4.2 0 .4.2.4.4s-.2.5-.4.5zm-.3 5v-4.3h.7V15h-.7zm3.8 0h-.7c-1 0-1.6-.7-1.6-2.1 0-1.3.6-2.3 1.7-2.3l.6.1-.1.6a1.1 1.1 0 00-.5-.1c-.7 0-1 .8-1 1.7 0 1 .4 1.6 1 1.6l.5-.1.1.5zm1-5c-.3 0-.5-.2-.5-.5 0-.2.2-.4.4-.4.3 0 .4.2.4.4s-.1.5-.4.5zm-.4 5v-4.3h.7V15h-.7zm2.5-5.4v1h.8v.6h-.8v2.6c0 .5.2.7.4.7h.3v.5a1.5 1.5 0 01-.5 0c-.2 0-.5 0-.6-.2-.2-.2-.3-.5-.3-1v-2.6h-.5v-.5h.5V10l.7-.3z"/><path fill="none" stroke="#000" stroke-linecap="round" stroke-linejoin="round" d="M85.9 30.9h35.7"/><path d="M120.7 33.9l5.2-3-5.2-3zM94.1 23c-.2 0-.4-.2-.4-.4 0-.3.2-.5.4-.5.3 0 .4.2.4.5s-.1.4-.4.4zm-.3 5v-4.3h.7v4.4h-.7zm1.6-3.2v-1.1h.6v.5a1 1 0 011-.6c.4 0 .8.2 1 .7a1.5 1.5 0 01.4-.5l.6-.2c.6 0 1 .5 1 1.6V28h-.6v-2.8c0-.5-.1-1.1-.7-1.1-.2 0-.5.2-.6.7V28h-.7v-2.9c0-.5 0-1-.6-1-.3 0-.6.2-.7.7a2.3 2.3 0 000 .4V28h-.7v-3.3zm5.6.3v-1.4h.6v.6c.3-.5.6-.7 1-.7.7 0 1.2.8 1.2 2.3 0 1.6-.6 2.2-1.3 2.2a.8.8 0 01-.8-.5v2.2h-.7V25zm.7 1.4v.3c.2.6.5.8.7.8.5 0 .7-.8.7-1.7 0-1-.2-1.7-.7-1.7-.4 0-.6.4-.7.8v1.5zm2.9-4.7h.7v6.3h-.7v-6.3zm2 1.2c-.2 0-.4-.2-.4-.4 0-.3.2-.5.5-.5.2 0 .4.2.4.5s-.2.4-.4.4zm-.3 5v-4.3h.7v4.4h-.7zm3.8 0l-.7.1c-1 0-1.6-.8-1.6-2.2 0-1.2.6-2.3 1.7-2.3l.6.2-.1.5a1.1 1.1 0 00-.5 0c-.7 0-1 .8-1 1.6 0 1 .4 1.6 1 1.6h.5l.1.4zm1-5c-.3 0-.5-.2-.5-.4 0-.3.2-.5.4-.5.3 0 .4.2.4.5s-.1.4-.4.4zm-.4 5v-4.3h.7v4.4h-.7zm2.5-5.3v1h.8v.5h-.8v2.6c0 .6.2.7.4.7h.3v.5a1.5 1.5 0 01-.5.1c-.2 0-.5 0-.6-.2-.2-.2-.3-.5-.3-1.1v-2.6h-.5v-.5h.5V23l.7-.3z"/><path fill="none" stroke="#000" stroke-linecap="round" stroke-linejoin="round" d="M85.9 43.8h35.7"/><path d="M120.7 46.8l5.2-3-5.2-3zM94.1 36c-.2 0-.4-.2-.4-.5s.2-.4.4-.4c.3 0 .4.1.4.4s-.1.5-.4.5zm-.3 5v-4.4h.7V41h-.7zm1.6-3.2v-1.2h.6v.6a1 1 0 011-.6c.4 0 .8.2 1 .6a1.5 1.5 0 01.4-.5l.6-.1c.6 0 1 .4 1 1.5V41h-.6v-2.7c0-.6-.1-1.2-.7-1.2-.2 0-.5.3-.6.7V41h-.7v-2.9c0-.4 0-1-.6-1-.3 0-.6.3-.7.8a2.3 2.3 0 000 .3V41h-.7v-3.2zm5.6.2v-1.4h.6v.6c.3-.5.6-.6 1-.6.7 0 1.2.8 1.2 2.2 0 1.6-.6 2.3-1.3 2.3a.8.8 0 01-.8-.5v2.1h-.7V38zm.7 1.4v.4c.2.6.5.7.7.7.5 0 .7-.8.7-1.7 0-.9-.2-1.6-.7-1.6-.4 0-.6.4-.7.8V39.4zm2.9-4.6h.7V41h-.7v-6.2zm2 1.2c-.2 0-.4-.2-.4-.5s.2-.4.5-.4c.2 0 .4.1.4.4s-.2.5-.4.5zm-.3 5v-4.4h.7V41h-.7zm3.8-.1l-.7.2c-1 0-1.6-.8-1.6-2.3 0-1.2.6-2.2 1.7-2.2l.6.1-.1.6a1.1 1.1 0 00-.5-.1c-.7 0-1 .8-1 1.7 0 1 .4 1.6 1 1.6l.5-.1.1.5zm1-5c-.3 0-.5-.1-.5-.4 0-.3.2-.4.4-.4.3 0 .4.1.4.4s-.1.5-.4.5zm-.4 5.1v-4.4h.7V41h-.7zm2.5-5.4v1h.8v.6h-.8v2.6c0 .5.2.7.4.7h.3v.5a1.5 1.5 0 01-.5 0c-.2 0-.5 0-.6-.2-.2-.2-.3-.5-.3-1.1v-2.5h-.5v-.6h.5V36l.7-.3z"/><path fill="none" stroke="#000" stroke-linecap="round" stroke-linejoin="round" d="M85.9 69.7h35.7"/><path d="M120.7 72.7l5.2-3-5.2-3zM94.1 62c-.2 0-.4-.2-.4-.5s.2-.4.4-.4c.3 0 .4.1.4.4 0 .3-.1.5-.4.5zm-.3 5v-4.4h.7V67h-.7zm1.6-3.2v-1.2h.6v.6a1 1 0 011-.6c.4 0 .8.1 1 .6 0-.2.2-.4.4-.5l.6-.1c.6 0 1 .4 1 1.5v2.9h-.6V64c0-.5-.1-1-.7-1-.2 0-.5.2-.6.6V66.9h-.7V64c0-.5 0-1-.6-1-.3 0-.6.3-.7.7a2.3 2.3 0 000 .4V67h-.7v-3.2zm5.6.2v-1.4h.6v.6c.3-.5.6-.6 1-.6.7 0 1.2.8 1.2 2.2 0 1.6-.6 2.3-1.3 2.3a.8.8 0 01-.8-.5v2.1h-.7V64zm.7 1.4v.4c.2.6.5.7.7.7.5 0 .7-.8.7-1.7 0-.9-.2-1.7-.7-1.7-.4 0-.6.4-.7.8v1.4zm2.9-4.6h.7v6.2h-.7v-6.2zm2 1.2c-.2 0-.4-.2-.4-.5s.2-.4.5-.4c.2 0 .4.1.4.4 0 .3-.2.5-.4.5zm-.3 5v-4.4h.7V67h-.7zm3.8-.1l-.7.1c-1 0-1.6-.7-1.6-2.2 0-1.2.6-2.2 1.7-2.2l.6.1-.1.6a1.1 1.1 0 00-.5-.2c-.7 0-1 .9-1 1.7 0 1 .4 1.7 1 1.7.2 0 .3 0 .5-.2l.1.6zm1-5c-.3 0-.5-.1-.5-.4 0-.3.2-.4.4-.4.3 0 .4.1.4.4 0 .3-.1.5-.4.5zm-.4 5v-4.3h.7V67h-.7zm2.5-5.3v1h.8v.5h-.8v2.6c0 .6.2.8.4.8h.3v.5h-.5c-.2 0-.5 0-.6-.2-.2-.2-.3-.5-.3-1.1V63h-.5v-.6h.5v-.7l.7-.3z"/><path fill="none" stroke="#000" stroke-linecap="round" stroke-linejoin="round" d="M85.9 82.7h35.7"/><path d="M120.7 85.7l5.2-3-5.2-3zm-26.6-11c-.2 0-.4 0-.4-.4 0-.2.2-.4.4-.4.3 0 .4.2.4.4s-.1.5-.4.5zm-.3 5.1v-4.3h.7v4.3h-.7zm1.6-3.2v-1.1h.6v.5a1 1 0 011-.6c.4 0 .8.2 1 .7a1.5 1.5 0 01.4-.5l.6-.2c.6 0 1 .4 1 1.5v3h-.6V77c0-.6-.1-1.1-.7-1.1-.2 0-.5.2-.6.6V79.8h-.7V77c0-.5 0-1-.6-1-.3 0-.6.2-.7.7a2.3 2.3 0 000 .4v2.7h-.7v-3.2zm5.6.2v-1.3h.6v.5c.3-.4.6-.6 1-.6.7 0 1.2.8 1.2 2.2 0 1.7-.6 2.3-1.3 2.3a.8.8 0 01-.8-.5v2.2h-.7v-4.8zm.7 1.4v.4c.2.6.5.7.7.7.5 0 .7-.8.7-1.6 0-1-.2-1.7-.7-1.7-.4 0-.6.4-.7.8V78.2zm2.9-4.6h.7v6.2h-.7v-6.2zm2 1.2c-.2 0-.4-.2-.4-.5 0-.2.2-.4.5-.4.2 0 .4.2.4.4s-.2.5-.4.5zm-.3 5v-4.3h.7v4.3h-.7zm3.8 0h-.7c-1 0-1.6-.7-1.6-2.1 0-1.3.6-2.3 1.7-2.3.2 0 .5 0 .6.2l-.1.5a1.1 1.1 0 00-.5-.1c-.7 0-1 .8-1 1.7 0 1 .4 1.6 1 1.6l.5-.1.1.5zm1-5c-.3 0-.5-.2-.5-.5 0-.2.2-.4.4-.4.3 0 .4.2.4.4s-.1.5-.4.5zm-.4 5v-4.3h.7v4.3h-.7zm2.5-5.3v1h.8v.5h-.8v2.6c0 .6.2.7.4.7h.3v.5a1.5 1.5 0 01-.5 0c-.2 0-.5 0-.6-.2-.2-.2-.3-.5-.3-1V76h-.5v-.5h.5v-.8l.7-.2z"/><path fill="#b3b3b3" fill-rule="evenodd" d="M3.4 24.4h39.2v13H3.4z" clip-rule="evenodd"/><path fill="none" stroke="#000" stroke-linecap="round" stroke-linejoin="round" d="M3.4 24.4h39.2v13H3.4z"/><path d="M18 30.3c-.2 0-.4-.2-.4-.5s.2-.5.5-.5c.2 0 .4.2.4.5s-.1.5-.4.5zm0 3.3c-.2 0-.4-.2-.4-.5s.2-.5.5-.5c.2 0 .4.2.4.5s-.1.5-.4.5zm1.3-.8l.7.2c.4 0 .6-.2.6-.6 0-.3 0-.6-.5-.8-.6-.4-.9-.8-.9-1.3 0-.7.5-1.2 1.2-1.2l.8.2-.2.6a1 1 0 00-.6-.2c-.4 0-.5.2-.5.5s0 .5.5.8c.5.3.9.7.9 1.3 0 .9-.6 1.3-1.3 1.3-.3 0-.7-.1-.9-.3l.2-.5zm4.8.6l-.7.2c-1 0-1.6-.8-1.6-2.2 0-1.3.7-2.3 1.7-2.3.3 0 .5 0 .7.2l-.2.5a1.1 1.1 0 00-.5-.1c-.7 0-1 .8-1 1.7 0 1 .4 1.6 1 1.6l.5-.1.1.5zm.6-6.1h.7v2.3l.4-.3.6-.2c.5 0 1 .4 1 1.5v3h-.7v-2.9c0-.5-.1-1-.6-1-.3 0-.5.2-.7.7V33.5h-.7v-6.2zm4.2 4.1c0 1.4.5 1.6 1 1.6l.7-.1.1.5-1 .2c-1 0-1.5-.9-1.5-2.2 0-1.4.6-2.3 1.5-2.3.8 0 1.2 1 1.2 2v.3h-2zm1.3-.5c0-.9-.3-1.3-.6-1.3-.5 0-.7.7-.7 1.3h1.3zm1.4-.6v-1.1h.6v.5a1 1 0 011-.6c.4 0 .8.2 1 .7a1.5 1.5 0 01.4-.5l.6-.2c.6 0 1 .4 1 1.5v3h-.6v-2.8c0-.6-.1-1.1-.6-1.1-.3 0-.6.2-.7.6V33.5h-.7v-2.8c0-.5 0-1-.6-1-.3 0-.6.2-.6.7a2.3 2.3 0 000 .4v2.7h-.8v-3.2zm6.1 1.1c0 1.4.5 1.6 1 1.6l.8-.1v.5l-.9.2c-1 0-1.6-.9-1.6-2.2 0-1.4.6-2.3 1.5-2.3s1.2 1 1.2 2v.3h-2zm1.4-.5c0-.9-.3-1.3-.7-1.3-.4 0-.7.7-.7 1.3h1.4z"/><path fill="#b2dec7" fill-rule="evenodd" d="M42.6 24.4H86v13H42.6z" clip-rule="evenodd"/><path fill="none" stroke="#000" stroke-linecap="round" stroke-linejoin="round" d="M42.6 24.4H86v13H42.6z"/><path d="M57.5 27.3h.7v2.3l.4-.3.6-.2c.6 0 1 .4 1 1.5v3h-.7v-2.9c0-.5 0-1-.6-1-.3 0-.5.2-.6.7V33.5h-.8v-6.2zm4.5.9v1h.8v.5H62v2.6c0 .6.2.7.4.7h.3v.5a1.5 1.5 0 01-.5 0c-.2 0-.5 0-.6-.2-.2-.2-.3-.5-.3-1v-2.6h-.5v-.5h.5v-.8l.7-.2zm2.3 0v1h.8v.5h-.8v2.6c0 .6.2.7.4.7h.3v.5a1.5 1.5 0 01-.5 0c-.2 0-.5 0-.7-.2l-.2-1v-2.6H63v-.5h.5v-.8l.7-.2zm1.4 2.3v-1.3h.6v.5c.3-.4.6-.6 1-.6.7 0 1.2.8 1.2 2.2 0 1.7-.6 2.3-1.3 2.3a.8.8 0 01-.8-.5v2.2h-.7v-4.8zm.7 1.4v.4c.2.6.5.7.7.7.6 0 .7-.8.7-1.6 0-1-.2-1.7-.7-1.7-.3 0-.6.4-.7.8V31.9zm2.8 1l.7.1c.4 0 .6-.2.6-.6 0-.3 0-.6-.5-.8-.6-.4-.9-.8-.9-1.3 0-.7.5-1.2 1.2-1.2l.8.2-.2.6a1 1 0 00-.6-.2c-.4 0-.5.2-.5.5s0 .5.5.8c.5.3.9.7.9 1.3 0 .9-.6 1.3-1.3 1.3-.3 0-.7-.1-.9-.3l.2-.5z"/><path fill="#b3b3b3" fill-rule="evenodd" d="M3.4 37.4h39.2v13H3.4z" clip-rule="evenodd"/><path fill="none" stroke="#000" stroke-linecap="round" stroke-linejoin="round" d="M3.4 37.4h39.2v13H3.4z"/><path d="M27.2 43.2c-.3 0-.5-.2-.5-.5s.2-.5.5-.5c.2 0 .4.2.4.5s-.1.5-.4.5zm0 3.3c-.3 0-.5-.2-.5-.5s.2-.5.5-.5c.2 0 .4.2.4.5s-.1.5-.4.5zm1.3-6.3h.7v2.4l.4-.4.6-.2c.5 0 1 .5 1 1.6v2.9h-.7v-2.8c0-.6-.1-1-.6-1-.3 0-.6.2-.7.6V46.5h-.7v-6.3zm4.9 6.3c-.8 0-1.4-.7-1.4-2.2 0-1.6.7-2.3 1.4-2.3.8 0 1.4.8 1.4 2.3 0 1.7-.8 2.2-1.4 2.2zm0-.5c.6 0 .7-1 .7-1.7s-.1-1.7-.7-1.7-.7 1-.7 1.7 0 1.7.7 1.7zm2-.2l.8.2c.4 0 .6-.3.6-.6 0-.4-.1-.6-.5-.9-.6-.4-1-.7-1-1.2 0-.8.6-1.3 1.3-1.3.3 0 .6.2.8.3l-.2.5a1 1 0 00-.6-.2c-.4 0-.6.3-.6.6s.1.4.6.7c.5.3.9.7.9 1.3 0 1-.6 1.3-1.3 1.3-.4 0-.7 0-.9-.2l.2-.5zM39 41v1h.9v.5H39v2.6c0 .6.2.8.5.8h.3v.5a1.5 1.5 0 01-.5 0c-.3 0-.5 0-.7-.2-.2-.2-.3-.5-.3-1.1v-2.6h-.5v-.5h.5v-.7l.7-.3z"/><path fill="#b2dec7" fill-rule="evenodd" d="M42.6 37.4H86v13H42.6z" clip-rule="evenodd"/><path fill="none" stroke="#000" stroke-linecap="round" stroke-linejoin="round" d="M42.6 37.4H86v13H42.6z"/><path d="M46.7 44.4c0 1.3.5 1.6 1 1.6.3 0 .6 0 .7-.2l.2.5c-.3.2-.7.2-1 .2-1 0-1.6-.8-1.6-2.2 0-1.4.6-2.3 1.5-2.3s1.2 1 1.2 2v.4h-2zm1.4-.6c0-.8-.3-1.2-.7-1.2-.4 0-.7.7-.7 1.2h1.4zm1.7-1.7l.4 1 .3.7.3-.8.4-.9h.7l-1 2.2 1 2.2h-.8l-.4-1-.3-.8c0 .3-.2.6-.3.8l-.4 1H49l1-2.2-1-2.2h.8zm5 3.4v1h-.6V46a1 1 0 01-1 .5c-.5 0-1-.4-1-1.2 0-1 .9-1.6 1.9-1.6v-.1c0-.6-.2-1-.7-1-.3 0-.5 0-.7.2l-.2-.5c.2-.1.6-.3 1-.3.9 0 1.3.6 1.3 1.6v1.9zm-.7-1.3c-.4 0-1.2 0-1.2 1 0 .6.3.8.5.8.3 0 .6-.2.7-.6a1.2 1.2 0 000-.3v-.9zm1.7-1v-1h.5v.4a1 1 0 011-.6c.5 0 .8.2 1 .7a1.5 1.5 0 01.4-.5l.6-.2c.6 0 1 .5 1 1.6v2.9h-.6v-2.8c0-.5-.1-1-.6-1-.3 0-.6.2-.7.6V46.5h-.7v-2.9c0-.5 0-1-.6-1-.3 0-.5.3-.6.7a2.3 2.3 0 000 .4v2.8h-.7v-3.3zm5.5.3V42h.6v.6c.3-.5.6-.7 1-.7.7 0 1.2.8 1.2 2.3 0 1.6-.6 2.2-1.3 2.2a.8.8 0 01-.8-.4v2.1h-.7v-4.7zm.7 1.4v.3c.2.7.5.8.7.8.6 0 .7-.8.7-1.7 0-.9-.2-1.7-.7-1.7-.3 0-.6.4-.7.8v1.4zm3-4.7h.6v6.3H65v-6.3zm2.1 4.2c0 1.3.6 1.6 1 1.6s.6 0 .8-.2v.5c-.2.2-.5.2-.9.2-1 0-1.5-.8-1.5-2.2 0-1.4.5-2.3 1.4-2.3.9 0 1.3 1 1.3 2v.4h-2zm1.4-.6c0-.8-.3-1.2-.7-1.2-.4 0-.6.7-.7 1.2h1.4zm1.7 2.7c-.2 0-.4-.2-.4-.5s.2-.5.4-.5c.3 0 .5.2.5.5s-.2.5-.5.5zm3.5-.1l-.7.1c-1 0-1.6-.7-1.6-2.2 0-1.2.6-2.2 1.7-2.2l.6.1-.1.6a1.1 1.1 0 00-.5-.2c-.7 0-1 .9-1 1.7 0 1 .4 1.7 1 1.7.2 0 .3 0 .5-.2v.6zm1.8.1c-.8 0-1.5-.7-1.5-2.2 0-1.6.7-2.3 1.5-2.3s1.4.8 1.4 2.3c0 1.7-.8 2.2-1.4 2.2zm0-.5c.6 0 .7-1 .7-1.7s-.1-1.7-.7-1.7c-.7 0-.8 1-.8 1.7s.2 1.7.8 1.7zm2.2-2.8v-1h.6v.4a1 1 0 011-.6c.4 0 .7.2.9.7a1.5 1.5 0 01.4-.5l.6-.2c.6 0 1 .5 1 1.6v2.9h-.6v-2.8c0-.5 0-1-.6-1-.3 0-.5.2-.6.6V46.5h-.8v-2.9c0-.5 0-1-.6-1-.2 0-.5.3-.6.7a2.3 2.3 0 000 .4v2.8h-.7v-3.3z"/><path fill="#b3b3b3" fill-rule="evenodd" d="M3.4 50.3h39.2v13H3.4z" clip-rule="evenodd"/><path fill="none" stroke="#000" stroke-linecap="round" stroke-linejoin="round" d="M3.4 50.3h39.2v13H3.4z"/><path d="M26.4 56.2c-.2 0-.4-.2-.4-.5s.2-.5.4-.5c.3 0 .5.2.5.5s-.2.5-.5.5zm0 3.3c-.2 0-.4-.2-.4-.5s.2-.5.4-.5c.3 0 .5.2.5.5s-.2.5-.5.5zm1.4-3V55h.5v.5c.3-.4.7-.6 1-.6.8 0 1.3.8 1.3 2.2 0 1.7-.7 2.3-1.4 2.3a.8.8 0 01-.7-.5v2.1h-.7v-4.7zm.6 1.3v.4c.2.6.5.7.7.7.6 0 .8-.8.8-1.7 0-.9-.2-1.6-.8-1.6-.3 0-.6.4-.6.8V57.8zm5.2.6v1h-.5V59H33a1 1 0 01-.9.5c-.5 0-1-.5-1-1.3 0-1 .9-1.5 1.9-1.5v-.2c0-.6-.2-1-.7-1-.3 0-.6.1-.8.3l-.1-.5c.2-.2.6-.3 1-.3.9 0 1.2.6 1.2 1.5v2zm-.6-1.2c-.4 0-1.2 0-1.2 1 0 .6.3.8.5.8.3 0 .6-.3.6-.7a1.2 1.2 0 000-.3v-.8zm2.4-3.2v1h.8v.6h-.8v2.6c0 .6.2.7.4.7h.3v.5a1.5 1.5 0 01-.5 0c-.2 0-.5 0-.6-.2-.2-.2-.3-.5-.3-1v-2.6h-.5V55h.5v-.8l.7-.3zm1.4-.8h.7v2.3l.4-.4.6-.1c.5 0 1 .4 1 1.5v3h-.7v-2.9c0-.5 0-1-.6-1-.3 0-.5.2-.6.7V59.4h-.8v-6.2z"/><path fill="#b2dec7" fill-rule="evenodd" d="M42.6 50.3H86v13H42.6z" clip-rule="evenodd"/><path fill="none" stroke="#000" stroke-linecap="round" stroke-linejoin="round" d="M42.6 50.3H86v13H42.6z"/><path d="M51.5 59.8l2-6.5h.5l-2 6.5h-.5zm3-3.6V55h.6v.6c.2-.4.5-.7 1-.7v.7c-.5 0-.8.4-1 1a2.6 2.6 0 000 .3v2.4h-.6v-3.2zm2.6 1.1c0 1.3.5 1.6 1 1.6l.7-.1.1.5-1 .2c-1 0-1.5-.9-1.5-2.2 0-1.4.6-2.3 1.5-2.3.8 0 1.2 1 1.2 2v.3h-2zm1.3-.5c0-.9-.3-1.3-.6-1.3-.5 0-.7.7-.7 1.3h1.3zm1.3 1.9l.7.2c.4 0 .7-.2.7-.6 0-.3-.1-.6-.6-.9-.6-.3-.9-.7-.9-1.2 0-.7.6-1.2 1.2-1.2l.8.2-.2.5a1 1 0 00-.5-.2c-.4 0-.6.3-.6.6s.1.5.5.7c.5.4 1 .8 1 1.4 0 .9-.7 1.3-1.4 1.3-.3 0-.6-.1-.8-.3l.1-.5zm4 .8c-.8 0-1.4-.7-1.4-2.3 0-1.5.7-2.2 1.4-2.2.8 0 1.4.7 1.4 2.2 0 1.7-.7 2.3-1.4 2.3zm0-.6c.6 0 .7-1 .7-1.7 0-.6 0-1.7-.7-1.7-.6 0-.7 1-.7 1.7 0 .8 0 1.7.7 1.7zm4.8-.7v1.2H68V59c-.2.2-.5.5-1 .5-.7 0-1-.6-1-1.7v-2.7h.7v2.6c0 .7 0 1.2.6 1.2.4 0 .5-.4.6-.6V55.1h.7v3.1zm1-2V55h.6v.6c.2-.4.5-.7 1-.7v.7c-.5 0-.8.4-1 1a2.6 2.6 0 000 .3v2.4h-.6v-3.2zm4.2 3.1l-.7.2c-1 0-1.6-.8-1.6-2.2 0-1.3.6-2.3 1.7-2.3l.6.1-.1.6a1.1 1.1 0 00-.5-.1c-.7 0-1 .8-1 1.7 0 1 .4 1.6 1 1.6l.5-.1.1.5zm1-2c0 1.3.6 1.6 1 1.6l.8-.1.1.5-1 .2c-1 0-1.5-.9-1.5-2.2 0-1.4.6-2.3 1.4-2.3 1 0 1.3 1 1.3 2v.3h-2zm1.4-.5c0-.9-.3-1.3-.6-1.3-.5 0-.7.7-.8 1.3h1.4z"/><path fill="#b3b3b3" fill-rule="evenodd" d="M3.4 63.2h39.2v13H3.4z" clip-rule="evenodd"/><path fill="none" stroke="#000" stroke-linecap="round" stroke-linejoin="round" d="M3.4 63.2h39.2v13H3.4z"/><path d="M25 71.4v1h-.5v-.5h-.1a1 1 0 01-.9.5c-.6 0-1-.5-1-1.2 0-1.1.9-1.6 1.8-1.6v-.1c0-.6-.1-1-.7-1-.2 0-.5 0-.7.2l-.1-.5c.2-.1.6-.3 1-.3.9 0 1.2.6 1.2 1.6v1.9zm-.6-1.3c-.4 0-1.2 0-1.2 1 0 .6.2.8.5.8s.5-.2.6-.7a1.2 1.2 0 000-.2V70zm3.7 2.2l-.7.1c-1 0-1.6-.8-1.6-2.2 0-1.2.6-2.3 1.7-2.3l.7.2-.2.5a1.1 1.1 0 00-.5 0c-.7 0-1 .8-1 1.6 0 1 .4 1.6 1 1.6h.5l.1.5zm2.7 0l-.7.1c-1 0-1.6-.8-1.6-2.2 0-1.2.6-2.3 1.7-2.3l.6.2-.1.5a1.1 1.1 0 00-.5 0c-.7 0-1 .8-1 1.6 0 1 .4 1.6 1 1.6h.5l.1.5zm1-2c0 1.3.6 1.6 1 1.6l.8-.2v.5l-.9.2c-1 0-1.6-.8-1.6-2.2 0-1.4.6-2.3 1.5-2.3s1.3 1 1.3 2v.3h-2zm1.4-.6c0-.8-.3-1.2-.7-1.2-.4 0-.6.6-.7 1.2h1.4zm1.4-.3V68h.6v.6c.3-.5.6-.7 1-.7.7 0 1.2.8 1.2 2.3 0 1.6-.7 2.2-1.3 2.2a.8.8 0 01-.8-.5v2.2h-.7v-4.7zm.7 1.4v.3c.2.6.5.8.7.8.5 0 .7-.8.7-1.7 0-1-.2-1.7-.7-1.7-.4 0-.6.4-.7.8v1.4zM39 67v1h.9v.5H39v2.6c0 .6.2.7.5.7h.3v.5a1.5 1.5 0 01-.5.1c-.3 0-.5 0-.7-.2-.2-.2-.3-.5-.3-1.1v-2.6h-.5V68h.5v-.7l.7-.3z"/><path fill="#b2dec7" fill-rule="evenodd" d="M42.6 63.2H86v13H42.6z" clip-rule="evenodd"/><path fill="none" stroke="#000" stroke-linecap="round" stroke-linejoin="round" d="M42.6 63.2H86v13H42.6z"/><path d="M49 67.3c-.2 0-.4-.2-.4-.4 0-.3.2-.5.4-.5.3 0 .5.2.5.5s-.2.4-.5.4zm-.3 5V68h.7v4.4h-.7zm1.7-3.2V68h.5v.5h.1a1 1 0 011-.6c.4 0 .7.2.9.7a1.5 1.5 0 01.4-.5l.6-.2c.6 0 1 .5 1 1.6v2.9h-.6v-2.8c0-.5 0-1-.6-1-.3 0-.5.2-.6.6V72.4h-.8v-2.9c0-.5 0-1-.6-1-.2 0-.5.3-.6.7a2.3 2.3 0 000 .4v2.8h-.7V69zm7.8 2.3v1h-.5v-.5h-.1a1 1 0 01-.9.5c-.6 0-1-.5-1-1.2 0-1.1.9-1.6 1.9-1.6v-.1c0-.6-.2-1-.7-1-.3 0-.6 0-.8.2l-.1-.5c.2-.1.6-.3 1-.3.9 0 1.2.6 1.2 1.6v1.9zm-.6-1.3c-.4 0-1.2 0-1.2 1 0 .6.3.8.5.8.3 0 .6-.2.6-.7a1.2 1.2 0 000-.2V70zm4.3 1.7c0 1.1-.2 1.6-.5 1.9-.2.3-.7.5-1.1.5a2 2 0 01-1-.3l.2-.5.8.2c.5 0 .9-.3.9-1.3v-.5a.9.9 0 01-.9.6c-.8 0-1.3-1-1.3-2.2 0-1.6.8-2.3 1.4-2.3.5 0 .7.3.8.6V68h.7v3.8zm-.7-2.3v-.3c-.1-.3-.3-.7-.7-.7-.5 0-.8.7-.8 1.7s.4 1.6.8 1.6c.2 0 .5-.1.6-.6V69.5zm2.1.7c0 1.4.5 1.7 1 1.7l.7-.2.2.5-1 .2c-1 0-1.6-.8-1.6-2.2 0-1.4.6-2.3 1.5-2.3s1.2 1 1.2 2v.3h-2zm1.4-.5c0-.8-.3-1.2-.7-1.2-.4 0-.7.6-.7 1.2h1.4zm1 3l2-6.5h.4l-2 6.5h-.4zm2.2 1l.6-.4c.1-.3.2-.6.2-1.4V68h.7v4c0 1-.2 1.4-.5 1.8-.2.2-.7.4-1 .4v-.6zm1.1-6.4c-.2 0-.4-.2-.4-.4 0-.3.2-.5.4-.5.3 0 .4.2.4.5s-.1.4-.4.4zm1.3 2V68h.6v.6c.3-.5.6-.7 1-.7.7 0 1.2.8 1.2 2.3 0 1.6-.7 2.2-1.3 2.2a.8.8 0 01-.8-.5v2.2h-.7v-4.7zm.7 1.5v.3c.2.6.5.8.7.8.5 0 .7-.8.7-1.7 0-1-.2-1.7-.7-1.7-.4 0-.6.4-.7.8v1.4zm3.4-.6c0 1.4.5 1.7 1 1.7l.7-.2.1.5-1 .2c-1 0-1.5-.8-1.5-2.2 0-1.4.6-2.3 1.5-2.3s1.2 1 1.2 2v.3h-2zm1.3-.5c0-.8-.3-1.2-.6-1.2-.4 0-.7.6-.7 1.2h1.3zm4 2.1c0 1.1 0 1.6-.3 1.9-.3.3-.7.5-1.2.5a2 2 0 01-1-.3l.2-.5.8.2c.6 0 .9-.3.9-1.3v-.5a.9.9 0 01-.8.6c-.8 0-1.3-1-1.3-2.2 0-1.6.7-2.3 1.3-2.3.5 0 .7.3.9.6V68h.6v3.8zm-.6-2.3v-.3c-.1-.3-.3-.7-.7-.7-.5 0-.7.7-.7 1.7s.3 1.6.7 1.6c.2 0 .5-.1.7-.6V69.5z"/><path fill="#b3b3b3" fill-rule="evenodd" d="M3.4 76.2h39.2v13H3.4z" clip-rule="evenodd"/><path fill="none" stroke="#000" stroke-linecap="round" stroke-linejoin="round" d="M3.4 76.2h39.2v13H3.4z"/><path d="M12.9 84.1v1.2h-.6v-.5c-.2.3-.5.6-1 .6-.7 0-1-.6-1-1.7v-2.8h.7v2.7c0 .7 0 1.2.5 1.2.4 0 .6-.4.7-.6v-3.3h.7v3.2zm.8.5l.7.2c.4 0 .7-.2.7-.6 0-.4-.1-.6-.6-.9-.5-.3-.8-.7-.8-1.2 0-.7.5-1.2 1.1-1.2.4 0 .6 0 .8.2l-.2.5a1 1 0 00-.5-.2c-.4 0-.6.3-.6.6s.1.4.5.7c.5.4 1 .8 1 1.4 0 .8-.7 1.3-1.4 1.3-.3 0-.6-.1-.8-.3l.1-.5zm3.2-1.4c0 1.3.6 1.6 1 1.6s.6 0 .8-.2l.1.5c-.2.2-.6.3-1 .3-1 0-1.5-.9-1.5-2.2 0-1.4.6-2.3 1.4-2.3 1 0 1.3 1 1.3 1.9v.4h-2zm1.4-.5c0-.9-.3-1.3-.6-1.3-.5 0-.7.7-.7 1.3h1.3zm1.4-.6v-1.2h.6v.7c.2-.4.6-.7 1-.7h.1v.7h-.1c-.5 0-.8.4-.9.9a2.6 2.6 0 000 .4v2.4h-.7v-3.2zm4 .6v.5h-2v-.5h2zm3 1.6l.1 1h-.6v-.5a1 1 0 01-1 .6c-.5 0-1-.5-1-1.3 0-1 .9-1.5 1.9-1.6 0-.7-.2-1-.7-1l-.7.1-.2-.4c.2-.2.6-.3 1-.3.9 0 1.3.5 1.3 1.5v2zm-.6-1.3c-.4 0-1.2.1-1.2 1 0 .6.3.8.5.8.3 0 .6-.2.7-.6a1.2 1.2 0 000-.3V83zm4.3 1.7c0 1.2-.2 1.6-.5 2-.2.2-.6.4-1.1.4a2 2 0 01-1-.2l.2-.6.8.2c.5 0 .9-.3.9-1.3v-.4a.9.9 0 01-.9.5c-.7 0-1.2-.9-1.2-2.2 0-1.6.7-2.2 1.3-2.2.5 0 .7.3.8.5V81h.7v3.8zm-.7-2.3v-.3c-.1-.3-.3-.6-.7-.6-.5 0-.8.6-.8 1.6 0 1.1.4 1.6.8 1.6.2 0 .5 0 .6-.6V82.4zm2.1.8c0 1.3.6 1.6 1 1.6s.6 0 .8-.2v.5c-.2.2-.5.3-.9.3-1 0-1.6-.9-1.6-2.2 0-1.4.6-2.3 1.5-2.3s1.3 1 1.3 1.9v.4h-2zm1.4-.5c0-.9-.3-1.3-.7-1.3-.4 0-.6.7-.7 1.3h1.4zm1.4-.6v-1.2h.6v.6c.2-.4.6-.6 1-.6.6 0 1 .4 1 1.5v2.9h-.6v-2.8c0-.5-.1-1-.6-1-.3 0-.6.2-.7.7a1.6 1.6 0 000 .4v2.7h-.7v-3.2zm4.4-2.2v1h.9v.6H39V84c0 .5.2.7.5.7h.3v.5a1.5 1.5 0 01-.5 0c-.3 0-.5 0-.7-.2-.2-.2-.3-.5-.3-1.1v-2.5h-.5v-.6h.5v-.7l.7-.3z"/><path fill="#b2dec7" fill-rule="evenodd" d="M42.6 76.2H86v13H42.6z" clip-rule="evenodd"/><path fill="none" stroke="#000" stroke-linecap="round" stroke-linejoin="round" d="M42.6 76.2H86v13H42.6z"/><path d="M49.6 82.7l-.1-2.4a33.5 33.5 0 01-.5 2.1l-.8 2.9h-.4l-.7-2.8a27.4 27.4 0 01-.5-2.2l-.1 2.4-.1 2.6h-.7l.4-6h.8l.7 2.7.4 2.1.5-2 .7-2.9h.8l.3 6.1h-.6l-.1-2.6zm2.8 2.7c-.7 0-1.4-.7-1.4-2.3 0-1.6.7-2.2 1.5-2.2s1.4.7 1.4 2.2c0 1.7-.8 2.3-1.4 2.3zm0-.6c.7 0 .8-1 .8-1.7 0-.6-.1-1.7-.7-1.7-.7 0-.8 1-.8 1.7s.2 1.7.8 1.7zm1.8 0l1.4-2.6.4-.7h-1.6V81h2.4v.5l-1.4 2.7-.4.6h1.7v.6h-2.5v-.4zm3.5-4.5c-.2 0-.4-.2-.4-.5 0-.2.2-.4.4-.4.3 0 .5.2.5.4s-.2.5-.5.5zm-.3 5v-4.4h.7v4.4h-.7zm1.7-6.2h.7v6.2H59v-6.2zm1.7 0h.7v6.2h-.7v-6.2zm4 5.2v1h-.6v-.5a1 1 0 01-1 .6c-.5 0-1-.5-1-1.3 0-1 1-1.5 1.9-1.6 0-.7-.1-1-.7-1l-.7.1-.2-.4c.2-.2.6-.3 1-.3 1 0 1.3.6 1.3 1.5v2zm-.7-1.3c-.3 0-1.2.1-1.2 1 0 .6.3.8.6.8s.5-.2.6-.6a1.2 1.2 0 000-.3V83zm1.3 2.7l1.9-6.5h.5l-2 6.5h-.4zm5.4-5.6h-1.6l-.2 1.5h.2c.3 0 .8.1 1.1.4.3.4.5.8.5 1.4 0 1.1-.7 2-1.7 2a2 2 0 01-1-.3l.1-.5.8.2c.6 0 1.1-.5 1.1-1.4 0-.9-.5-1.3-1.3-1.3h-.4l.3-2.6h2.1v.6zm1.4 5.3c-.3 0-.5-.2-.5-.5 0-.4.2-.6.5-.6s.4.2.4.6-.1.5-.4.5zm2.5 0c-.9 0-1.4-1.1-1.4-3 0-2 .6-3 1.5-3 1 0 1.5 1.1 1.5 3 0 2.1-.7 3-1.6 3zm0-.6c.6 0 .9-1 .9-2.4s-.3-2.4-.8-2.4c-.6 0-.8 1-.8 2.4s.2 2.4.8 2.4zm4.1.6c-.3 0-.4-.2-.4-.5 0-.4.2-.6.4-.6.3 0 .5.2.5.6s-.2.5-.5.5zm1.7 0c-.2 0-.4-.2-.4-.5 0-.4.2-.6.5-.6.2 0 .4.2.4.6s-.2.5-.4.5zm1.8 0c-.3 0-.5-.2-.5-.5 0-.4.3-.6.5-.6.3 0 .5.2.5.6s-.2.5-.5.5z"/><path fill="#b3b3b3" fill-rule="evenodd" d="M126 11.5h39.2v13H126z" clip-rule="evenodd"/><path fill="none" stroke="#000" stroke-linecap="round" stroke-linejoin="round" d="M126 11.5h39.2v13H126z"/><path d="M139.9 17.4c-.3 0-.4-.2-.4-.5s.2-.6.4-.6c.3 0 .5.2.5.6 0 .3-.2.5-.5.5zm0 3.3c-.3 0-.4-.2-.4-.5s.2-.6.4-.6c.3 0 .5.3.5.6s-.2.5-.5.5zm1.3-3.3v-1.2h.6v.6a1 1 0 011-.6c.4 0 .8.1 1 .6 0-.2.2-.4.4-.5l.6-.1c.6 0 1 .4 1 1.5v2.9h-.6v-2.7c0-.6-.1-1.2-.6-1.2-.3 0-.6.3-.7.7V20.6h-.7v-2.9c0-.4 0-1-.6-1-.3 0-.6.3-.6.8a2.3 2.3 0 000 .3v2.8h-.8v-3.2zm6.1 1c0 1.4.5 1.7 1 1.7.3 0 .6 0 .7-.2l.2.5c-.3.2-.6.2-1 .2-1 0-1.6-.8-1.6-2.1 0-1.5.6-2.3 1.5-2.3s1.2.9 1.2 1.9v.4h-2zm1.4-.4c0-1-.3-1.3-.7-1.3-.4 0-.7.7-.7 1.3h1.4zm2.2-2.8v1h.9v.6h-.9v2.5c0 .6.2.8.5.8h.3v.5a1.5 1.5 0 01-.5 0c-.3 0-.5 0-.7-.2-.2-.2-.3-.5-.3-1.1v-2.5h-.5v-.6h.5v-.7l.7-.3zm1.5-.8h.7v2.3c0-.2.2-.3.4-.4l.5-.1c.6 0 1 .4 1 1.5v2.9h-.6v-2.8c0-.6-.2-1-.6-1-.4 0-.6.2-.7.6a1.9 1.9 0 000 .4v2.8h-.7v-6.2zm4.8 6.3c-.7 0-1.4-.7-1.4-2.3 0-1.6.7-2.2 1.5-2.2s1.4.7 1.4 2.2c0 1.7-.8 2.3-1.4 2.3zm0-.6c.7 0 .8-1 .8-1.7s-.1-1.7-.7-1.7c-.7 0-.8 1-.8 1.7s.2 1.7.8 1.7zm4.9-5.7v6.1h-.6v-.4a1 1 0 01-1 .6c-.7 0-1.2-.8-1.2-2.3 0-1.5.6-2.2 1.3-2.2.3 0 .6.1.8.5v-2.3h.7zm-.7 3.5v-.3c0-.4-.3-.8-.7-.8-.5 0-.7.8-.7 1.6 0 1 .2 1.7.7 1.7.2 0 .5-.1.7-.8V18z"/><path fill="#b3b3b3" fill-rule="evenodd" d="M165.2 11.5h43.2v13h-43.2z" clip-rule="evenodd"/><path fill="none" stroke="#000" stroke-linecap="round" stroke-linejoin="round" d="M165.2 11.5h43.2v13h-43.2z"/><path d="M185.2 20.4a3 3 0 01-1 .2c-.6 0-1.1-.1-1.5-.5-.5-.5-.7-1.3-.7-2.5 0-2.3 1.2-3.1 2.2-3.1l.9.1-.1.6-.7-.1c-.8 0-1.6.6-1.6 2.5 0 1.8.7 2.5 1.4 2.5l.4-.1v-2h-.7v-.6h1.4v3zm3.2-2.7h-1.6V20h1.8v.6H186v-6h2.4v.5h-1.7v2h1.6v.6zm1.6-2.6h-1v-.6h2.8v.6h-1v5.5h-.8V15z"/><path fill="#b3b3b3" fill-rule="evenodd" d="M126 24.4h39.2v13H126z" clip-rule="evenodd"/><path fill="none" stroke="#000" stroke-linecap="round" stroke-linejoin="round" d="M126 24.4h39.2v13H126z"/><path d="M140.6 30.3c-.2 0-.4-.2-.4-.5s.2-.5.5-.5c.2 0 .4.2.4.5s-.2.5-.4.5zm0 3.3c-.2 0-.4-.2-.4-.5s.2-.5.5-.5c.2 0 .4.2.4.5s-.2.5-.4.5zm1.3-.8l.7.2c.4 0 .6-.2.6-.6 0-.3-.1-.6-.5-.8-.6-.4-1-.8-1-1.3 0-.7.6-1.2 1.3-1.2l.7.2-.1.6a1 1 0 00-.6-.2c-.4 0-.6.2-.6.5s.1.5.6.8c.5.3.9.7.9 1.3 0 .9-.6 1.3-1.4 1.3-.3 0-.6-.1-.8-.3l.2-.5zm4.8.6l-.7.2c-1 0-1.6-.8-1.6-2.2 0-1.3.6-2.3 1.7-2.3.2 0 .5 0 .6.2l-.1.5a1.1 1.1 0 00-.5-.1c-.7 0-1 .8-1 1.7 0 1 .4 1.6 1 1.6l.5-.1.1.5zm.6-6.1h.7v2.3l.4-.3.6-.2c.5 0 1 .4 1 1.5v3h-.7v-2.9c0-.5-.1-1-.6-1-.3 0-.6.2-.7.7a1.9 1.9 0 000 .3v2.8h-.7v-6.2zm4.1 4.1c0 1.4.6 1.6 1 1.6l.8-.1.1.5-1 .2c-1 0-1.5-.9-1.5-2.2 0-1.4.6-2.3 1.4-2.3 1 0 1.3 1 1.3 2v.3h-2zm1.4-.5c0-.9-.3-1.3-.6-1.3-.5 0-.7.7-.8 1.3h1.4zm1.4-.6v-1.1h.6v.5a1 1 0 011-.6c.4 0 .8.2 1 .7 0-.3.2-.4.4-.5l.6-.2c.6 0 1 .4 1 1.5v3h-.7v-2.8c0-.6 0-1.1-.6-1.1-.2 0-.5.2-.6.6V33.5h-.7v-2.8c0-.5-.1-1-.6-1-.3 0-.6.2-.7.7a2.2 2.2 0 000 .4v2.7h-.7v-3.2zm6 1.1c0 1.4.6 1.6 1.1 1.6l.7-.1.1.5-1 .2c-1 0-1.5-.9-1.5-2.2 0-1.4.6-2.3 1.5-2.3s1.2 1 1.2 2v.3h-2zm1.4-.5c0-.9-.3-1.3-.6-1.3-.4 0-.7.7-.7 1.3h1.3z"/><path fill="#b3b3b3" fill-rule="evenodd" d="M165.2 24.4h43.2v13h-43.2z" clip-rule="evenodd"/><path fill="none" stroke="#000" stroke-linecap="round" stroke-linejoin="round" d="M165.2 24.4h43.2v13h-43.2z"/><path d="M180.1 27.3h.7v2.3a1.3 1.3 0 01.4-.3l.6-.2c.5 0 1 .4 1 1.5v3h-.7v-2.9c0-.5-.1-1-.6-1-.3 0-.6.2-.7.7V33.5h-.7v-6.2zm4.5.9v1h.8v.5h-.8v2.6c0 .6.2.7.4.7h.3v.5a1.5 1.5 0 01-.5 0c-.3 0-.5 0-.7-.2-.2-.2-.2-.5-.2-1v-2.6h-.6v-.5h.6v-.8l.7-.2zm2.3 0v1h.8v.5h-.8v2.6c0 .6.1.7.4.7h.3v.5a1.5 1.5 0 01-.5 0c-.3 0-.5 0-.7-.2-.2-.2-.2-.5-.2-1v-2.6h-.6v-.5h.6v-.8l.7-.2zm1.4 2.3v-1.3h.6v.5c.3-.4.6-.6 1-.6.7 0 1.2.8 1.2 2.2 0 1.7-.7 2.3-1.3 2.3a.8.8 0 01-.8-.5v2.2h-.7v-4.8zm.7 1.4v.4c.2.6.5.7.7.7.5 0 .7-.8.7-1.6 0-1-.2-1.7-.7-1.7-.4 0-.7.4-.7.8V31.9zm2.8 1l.7.1c.4 0 .6-.2.6-.6 0-.3-.1-.6-.5-.8-.6-.4-1-.8-1-1.3 0-.7.6-1.2 1.3-1.2l.8.2-.2.6a1 1 0 00-.6-.2c-.4 0-.6.2-.6.5s.1.5.6.8c.5.3.9.7.9 1.3 0 .9-.6 1.3-1.3 1.3-.4 0-.7-.1-.9-.3l.2-.5z"/><path fill="#b3b3b3" fill-rule="evenodd" d="M126 37.4h39.2v13H126z" clip-rule="evenodd"/><path fill="none" stroke="#000" stroke-linecap="round" stroke-linejoin="round" d="M126 37.4h39.2v13H126z"/><path d="M149.7 43.2c-.2 0-.4-.2-.4-.5s.2-.5.4-.5c.3 0 .5.2.5.5s-.2.5-.5.5zm0 3.3c-.2 0-.4-.2-.4-.5s.2-.5.4-.5c.3 0 .5.2.5.5s-.2.5-.5.5zm1.4-6.3h.7v2.4c0-.2.2-.3.4-.4l.5-.2c.6 0 1 .5 1 1.6v2.9h-.6v-2.8c0-.6-.2-1-.6-1-.4 0-.6.2-.7.6a1.9 1.9 0 000 .3v2.9h-.7v-6.3zm4.8 6.3c-.7 0-1.4-.7-1.4-2.2 0-1.6.7-2.3 1.5-2.3s1.4.8 1.4 2.3c0 1.7-.8 2.2-1.4 2.2zm0-.5c.7 0 .8-1 .8-1.7s-.1-1.7-.7-1.7c-.7 0-.8 1-.8 1.7s.1 1.7.8 1.7zm2.1-.2l.8.2c.3 0 .6-.3.6-.6 0-.4-.1-.6-.6-.9-.5-.4-.8-.7-.8-1.2 0-.8.5-1.3 1.2-1.3.3 0 .6.2.7.3l-.2.5a1 1 0 00-.5-.2c-.4 0-.6.3-.6.6s.1.4.5.7c.5.3 1 .7 1 1.3 0 1-.6 1.3-1.4 1.3-.3 0-.6 0-.8-.2l.1-.5zm3.6-4.7v1h.9v.5h-.9v2.6c0 .6.2.8.5.8h.2v.5a1.5 1.5 0 01-.4 0c-.3 0-.6 0-.7-.2-.2-.2-.3-.5-.3-1.1v-2.6h-.5v-.5h.5v-.7l.7-.3z"/><path fill="#b3b3b3" fill-rule="evenodd" d="M165.2 37.4h43.2v13h-43.2z" clip-rule="evenodd"/><path fill="none" stroke="#000" stroke-linecap="round" stroke-linejoin="round" d="M165.2 37.4h43.2v13h-43.2z"/><path d="M169.3 44.4c0 1.3.5 1.6 1 1.6.3 0 .5 0 .7-.2l.1.5c-.2.2-.6.2-1 .2-1 0-1.5-.8-1.5-2.2 0-1.4.6-2.3 1.5-2.3.8 0 1.2 1 1.2 2v.4h-2zm1.3-.6c0-.8-.3-1.2-.6-1.2-.5 0-.7.7-.7 1.2h1.3zm1.8-1.7l.4 1 .3.7c0-.3.2-.5.3-.8l.4-.9h.7l-1 2.2 1 2.2h-.8l-.4-1-.3-.8c0 .3-.2.6-.3.8l-.4 1h-.7l1-2.2-1-2.2h.8zm5 3.4v1h-.6V46h-.1a1 1 0 01-.9.5c-.6 0-1-.4-1-1.2 0-1 .9-1.6 1.9-1.6v-.1c0-.6-.2-1-.7-1a1.2 1.2 0 00-.8.2l-.1-.5c.2-.1.6-.3 1-.3.9 0 1.2.6 1.2 1.6v1.9zm-.7-1.3c-.4 0-1.2 0-1.2 1 0 .6.3.8.5.8.3 0 .6-.2.6-.6v-1.2zm1.6-1v-1h.6v.4a1 1 0 011-.6c.4 0 .8.2 1 .7 0-.2.2-.4.4-.5l.6-.2c.6 0 1 .5 1 1.6v2.9h-.6v-2.8c0-.5-.1-1-.7-1-.2 0-.5.2-.6.6V46.5h-.7v-2.9c0-.5 0-1-.6-1-.3 0-.6.3-.7.7a2.3 2.3 0 000 .4v2.8h-.7v-3.3zm5.6.3V42h.6v.6c.3-.5.6-.7 1-.7.7 0 1.2.8 1.2 2.3 0 1.6-.7 2.2-1.3 2.2a.8.8 0 01-.8-.4v2.1h-.7v-4.7zm.7 1.4v.3c.2.7.5.8.7.8.5 0 .7-.8.7-1.7 0-.9-.2-1.7-.7-1.7-.4 0-.6.4-.7.8v1.4zm2.9-4.7h.7v6.3h-.7v-6.3zm2.2 4.2c0 1.3.5 1.6 1 1.6.3 0 .6 0 .7-.2l.2.5c-.3.2-.6.2-1 .2-1 0-1.6-.8-1.6-2.2 0-1.4.6-2.3 1.5-2.3s1.2 1 1.2 2v.4h-2zm1.4-.6c0-.8-.3-1.2-.7-1.2-.4 0-.7.7-.7 1.2h1.4zm1.7 2.7c-.3 0-.5-.2-.5-.5s.3-.5.5-.5c.3 0 .5.2.5.5s-.2.5-.5.5zm3.5-.1l-.8.1c-1 0-1.6-.7-1.6-2.2 0-1.2.7-2.2 1.8-2.2l.6.1-.2.6a1.1 1.1 0 00-.5-.2c-.7 0-1 .9-1 1.7 0 1 .4 1.7 1 1.7.2 0 .4 0 .6-.2v.6zm1.7.1c-.8 0-1.4-.7-1.4-2.2 0-1.6.7-2.3 1.5-2.3s1.4.8 1.4 2.3c0 1.7-.8 2.2-1.5 2.2zm0-.5c.7 0 .8-1 .8-1.7s-.1-1.7-.8-1.7c-.6 0-.7 1-.7 1.7s.1 1.7.8 1.7zm2.2-2.8v-1h.6v.4a1 1 0 011-.6c.5 0 .8.2 1 .7a1.5 1.5 0 01.4-.5l.6-.2c.6 0 1 .5 1 1.6v2.9h-.6v-2.8c0-.5-.1-1-.6-1-.3 0-.6.2-.7.6V46.5h-.7v-2.9c0-.5 0-1-.6-1-.3 0-.5.3-.6.7a2.2 2.2 0 000 .4v2.8h-.7v-3.3z"/><path fill="#fddfbb" fill-rule="evenodd" d="M126 50.3h39.2v13H126z" clip-rule="evenodd"/><path fill="none" stroke="#000" stroke-linecap="round" stroke-linejoin="round" d="M126 50.3h39.2v13H126z"/><path d="M149 56.2c-.3 0-.4-.2-.4-.5s.2-.5.4-.5c.3 0 .5.2.5.5s-.2.5-.5.5zm0 3.3c-.3 0-.4-.2-.4-.5s.2-.5.4-.5c.3 0 .5.2.5.5s-.2.5-.5.5zm1.3-3V55h.6v.5c.3-.4.7-.6 1-.6.8 0 1.2.8 1.2 2.2 0 1.7-.6 2.3-1.3 2.3a.8.8 0 01-.8-.5v2.1h-.7v-4.7zm.7 1.3v.4c.2.6.5.7.7.7.6 0 .8-.8.8-1.7 0-.9-.3-1.6-.8-1.6-.3 0-.6.4-.7.8V57.8zm5.2.6v1h-.6V59a1 1 0 01-.9.5c-.6 0-1-.5-1-1.3 0-1 .8-1.5 1.8-1.5v-.2c0-.6-.1-1-.7-1-.2 0-.5.1-.7.3l-.1-.5c.2-.2.5-.3 1-.3.9 0 1.2.6 1.2 1.5v2zm-.7-1.2c-.3 0-1.2 0-1.2 1 0 .6.3.8.6.8s.5-.3.6-.7a1.2 1.2 0 000-.3v-.8zM158 54v1h.8v.6h-.8v2.6c0 .6.2.7.4.7h.3v.5a1.5 1.5 0 01-.5 0c-.3 0-.5 0-.7-.2l-.2-1v-2.6h-.6V55h.6v-.8l.7-.3zm1.4-.8h.7v2.3l.4-.4.6-.1c.5 0 1 .4 1 1.5v3h-.7v-2.9c0-.5-.1-1-.6-1-.3 0-.6.2-.7.7a1.9 1.9 0 000 .3v2.8h-.7v-6.2z"/><path fill="#fddfbb" fill-rule="evenodd" d="M165.2 50.3h43.2v13h-43.2z" clip-rule="evenodd"/><path fill="none" stroke="#000" stroke-linecap="round" stroke-linejoin="round" d="M165.2 50.3h43.2v13h-43.2z"/><path d="M165.9 59.8l1.9-6.5h.5l-2 6.5h-.4zm2.9-3.6V55h.6v.5c.2-.4.6-.6 1-.6.6 0 1 .4 1 1.5v3h-.6v-2.9c0-.5-.1-1-.6-1-.3 0-.6.2-.7.7a1.6 1.6 0 000 .4v2.7h-.7v-3.2zm4.1 1.1c0 1.3.6 1.6 1 1.6l.8-.1v.5l-.9.2c-1 0-1.5-.9-1.5-2.2 0-1.4.5-2.3 1.4-2.3.9 0 1.3 1 1.3 2v.3h-2zm1.4-.5c0-.9-.3-1.3-.7-1.3-.4 0-.6.7-.7 1.3h1.4zm1.8-1.7l.4 2.1.2 1.4.3-1.4.5-2.1h.6l.4 2 .3 1.5.3-1.4.4-2.1h.7l-1.1 4.3h-.6l-.5-2a12.4 12.4 0 01-.2-1.4l-.3 1.3-.5 2.1h-.6l-1-4.3h.7zm8.7 5v.4h-4.5v-.4h4.5zm.5-4v-1h.6v.6c.2-.4.5-.7 1-.7h.1v.7h-.1c-.5 0-.8.4-.9 1a2.5 2.5 0 000 .3v2.4h-.7v-3.2zm2.6 1.2c0 1.3.5 1.6 1 1.6l.7-.1.2.5-1 .2c-1 0-1.6-.9-1.6-2.2 0-1.4.6-2.3 1.5-2.3s1.2 1 1.2 2v.3h-2zm1.4-.5c0-.9-.4-1.3-.7-1.3-.4 0-.7.7-.7 1.3h1.4zm1.3 1.9l.7.2c.3 0 .6-.2.6-.6 0-.3-.1-.6-.6-.9-.5-.3-.8-.7-.8-1.2 0-.7.5-1.2 1.2-1.2l.7.2-.1.5a1 1 0 00-.6-.2c-.4 0-.6.3-.6.6s.1.5.6.7c.5.4.9.8.9 1.4 0 .9-.6 1.3-1.4 1.3-.3 0-.6-.1-.8-.3l.2-.5zm3.9.8c-.8 0-1.4-.7-1.4-2.3 0-1.5.7-2.2 1.4-2.2.8 0 1.5.7 1.5 2.2 0 1.7-.8 2.3-1.5 2.3zm0-.6c.6 0 .8-1 .8-1.7 0-.6-.2-1.7-.8-1.7-.6 0-.7 1-.7 1.7 0 .8.1 1.7.7 1.7zm4.8-.7v1.2h-.5V59h-.1a1.1 1.1 0 01-1 .5c-.7 0-1-.6-1-1.7v-2.7h.7v2.6c0 .7.1 1.2.6 1.2.4 0 .6-.4.6-.6V55.1h.7v3.1zm1-2V55h.6v.6c.2-.4.6-.7 1-.7h.1v.7h-.1c-.5 0-.8.4-.9 1a2.6 2.6 0 000 .3v2.4h-.7v-3.2zm4.2 3.1l-.7.2c-1 0-1.6-.8-1.6-2.2 0-1.3.7-2.3 1.7-2.3l.7.1-.2.6a1.1 1.1 0 00-.5-.1c-.7 0-1 .8-1 1.7 0 1 .4 1.6 1 1.6l.5-.1.1.5zm1-2c0 1.3.6 1.6 1 1.6l.8-.1.1.5-1 .2c-1 0-1.5-.9-1.5-2.2 0-1.4.6-2.3 1.5-2.3.8 0 1.2 1 1.2 2v.3h-2zm1.4-.5c0-.9-.3-1.3-.6-1.3-.5 0-.7.7-.7 1.3h1.3z"/><path fill="#b3b3b3" fill-rule="evenodd" d="M126 63.2h39.2v13H126z" clip-rule="evenodd"/><path fill="none" stroke="#000" stroke-linecap="round" stroke-linejoin="round" d="M126 63.2h39.2v13H126z"/><path d="M147.6 71.4v1h-.6v-.5a1 1 0 01-1 .5c-.5 0-1-.5-1-1.2 0-1.1 1-1.6 2-1.6v-.1c0-.6-.2-1-.8-1a1.2 1.2 0 00-.7.2l-.2-.5c.2-.1.6-.3 1-.3 1 0 1.3.6 1.3 1.6v1.9zm-.7-1.3c-.3 0-1.2 0-1.2 1 0 .6.3.8.6.8s.5-.2.6-.7v-1.1zm3.8 2.2l-.7.1c-1 0-1.6-.8-1.6-2.2 0-1.2.6-2.3 1.7-2.3l.6.2-.1.5a1.1 1.1 0 00-.5 0c-.7 0-1 .8-1 1.6 0 1 .4 1.6 1 1.6h.5l.1.5zm2.7 0l-.8.1c-1 0-1.5-.8-1.5-2.2 0-1.2.6-2.3 1.7-2.3l.6.2-.1.5a1.1 1.1 0 00-.5 0c-.7 0-1 .8-1 1.6 0 1 .3 1.6 1 1.6h.5v.5zm1-2c0 1.3.5 1.6 1 1.6l.7-.2.2.5a2 2 0 01-1 .2c-1 0-1.6-.8-1.6-2.2 0-1.4.6-2.3 1.5-2.3s1.2 1 1.2 2v.3h-2zm1.4-.6c0-.8-.4-1.2-.7-1.2-.4 0-.7.6-.7 1.2h1.4zm1.4-.3V68h.6v.6c.2-.5.6-.7 1-.7.7 0 1.2.8 1.2 2.3 0 1.6-.7 2.2-1.4 2.2a.8.8 0 01-.7-.5v2.2h-.7v-4.7zm.7 1.4v.3c.1.6.4.8.6.8.6 0 .8-.8.8-1.7 0-1-.2-1.7-.8-1.7-.3 0-.6.4-.6.8v1.4zm3.7-3.8v1h.8v.5h-.8v2.6c0 .6.2.7.5.7h.2v.5a1.5 1.5 0 01-.4.1c-.3 0-.6 0-.7-.2-.2-.2-.3-.5-.3-1.1v-2.6h-.5V68h.5v-.7l.7-.3z"/><path fill="#b3b3b3" fill-rule="evenodd" d="M165.2 63.2h43.2v13h-43.2z" clip-rule="evenodd"/><path fill="none" stroke="#000" stroke-linecap="round" stroke-linejoin="round" d="M165.2 63.2h43.2v13h-43.2z"/><path d="M171.6 67.3c-.2 0-.4-.2-.4-.4 0-.3.2-.5.4-.5.3 0 .4.2.4.5s-.1.4-.4.4zm-.3 5V68h.7v4.4h-.7zm1.6-3.2V68h.6v.5a1 1 0 011-.6c.4 0 .8.2 1 .7l.4-.5.6-.2c.6 0 1 .5 1 1.6v2.9h-.6v-2.8c0-.5-.1-1-.6-1-.3 0-.6.2-.7.6V72.4h-.7v-2.9c0-.5 0-1-.6-1-.3 0-.6.3-.6.7a2.3 2.3 0 000 .4v2.8h-.8V69zm8 2.3v1h-.7v-.5a1 1 0 01-.9.5c-.6 0-1-.5-1-1.2 0-1.1.8-1.6 1.8-1.6v-.1c0-.6-.1-1-.7-1-.2 0-.5 0-.7.2l-.1-.5c.1-.1.5-.3 1-.3.9 0 1.2.6 1.2 1.6v1.9zM180 70c-.3 0-1.2 0-1.2 1 0 .6.3.8.6.8s.5-.2.6-.7v-1.1zm4.3 1.7c0 1.1-.1 1.6-.4 1.9-.3.3-.7.5-1.2.5a2 2 0 01-1-.3l.2-.5.8.2c.6 0 1-.3 1-1.3v-.5a.9.9 0 01-1 .6c-.7 0-1.2-1-1.2-2.2 0-1.6.7-2.3 1.4-2.3.4 0 .7.3.8.6V68h.7v3.8zm-.7-2.3v-.3c0-.3-.2-.7-.6-.7-.5 0-.8.7-.8 1.7s.4 1.6.8 1.6c.2 0 .5-.1.6-.6V69.5zm2.2.7c0 1.4.5 1.7 1 1.7l.7-.2.1.5a2 2 0 01-1 .2c-1 0-1.5-.8-1.5-2.2 0-1.4.6-2.3 1.5-2.3.8 0 1.2 1 1.2 2v.3h-2zm1.3-.5c0-.8-.3-1.2-.6-1.2-.5 0-.7.6-.7 1.2h1.3zm1 3l2-6.5h.5l-2 6.5h-.5zm2.2 1c.2-.1.5-.2.6-.4.2-.3.2-.6.2-1.4V68h.7v4c0 1-.1 1.4-.4 1.8-.3.2-.7.4-1 .4v-.6zm1.2-6.4c-.3 0-.4-.2-.4-.4 0-.3.2-.5.4-.5s.4.2.4.5-.2.4-.4.4zm1.3 2V68h.6v.6c.2-.5.6-.7 1-.7.7 0 1.2.8 1.2 2.3 0 1.6-.7 2.2-1.4 2.2a.8.8 0 01-.7-.5v2.2h-.7v-4.7zm.7 1.5v.3c.1.6.4.8.6.8.6 0 .8-.8.8-1.7 0-1-.2-1.7-.8-1.7-.3 0-.6.4-.6.8v1.4zm3.4-.6c0 1.4.5 1.7 1 1.7l.7-.2.1.5-1 .2c-1 0-1.5-.8-1.5-2.2 0-1.4.6-2.3 1.4-2.3 1 0 1.3 1 1.3 2v.3h-2zm1.3-.5c0-.8-.3-1.2-.6-1.2-.5 0-.7.6-.7 1.2h1.3zm4 2.1c0 1.1 0 1.6-.4 1.9-.2.3-.6.5-1.1.5a2 2 0 01-1-.3l.2-.5.8.2c.5 0 .9-.3.9-1.3v-.5a.9.9 0 01-.9.6c-.7 0-1.3-1-1.3-2.2 0-1.6.8-2.3 1.4-2.3.5 0 .7.3.8.6V68h.7v3.8zm-.6-2.3v-.3c-.1-.3-.3-.7-.7-.7-.5 0-.8.7-.8 1.7s.4 1.6.8 1.6c.2 0 .5-.1.6-.6V69.5z"/><path fill="#b3b3b3" fill-rule="evenodd" d="M126 76.2h39.2v13H126z" clip-rule="evenodd"/><path fill="none" stroke="#000" stroke-linecap="round" stroke-linejoin="round" d="M126 76.2h39.2v13H126z"/><path d="M135.5 84.1v1.2h-.6v-.5c-.2.3-.5.6-1 .6-.8 0-1-.6-1-1.7v-2.8h.6v2.7c0 .7.1 1.2.6 1.2.4 0 .6-.4.6-.6v-3.3h.8v3.2zm.8.5l.7.2c.4 0 .7-.2.7-.6 0-.4-.2-.6-.6-.9-.6-.3-.9-.7-.9-1.2 0-.7.5-1.2 1.2-1.2.4 0 .6 0 .8.2l-.2.5a1 1 0 00-.6-.2c-.3 0-.5.3-.5.6s0 .4.5.7c.5.4 1 .8 1 1.4 0 .8-.7 1.3-1.4 1.3-.3 0-.7-.1-.9-.3l.2-.5zm3.2-1.4c0 1.3.5 1.6 1 1.6.4 0 .6 0 .8-.2v.5c-.2.2-.5.3-.9.3-1 0-1.6-.9-1.6-2.2 0-1.4.6-2.3 1.5-2.3s1.3 1 1.3 1.9v.4h-2zm1.4-.5c0-.9-.3-1.3-.7-1.3-.4 0-.6.7-.7 1.3h1.4zm1.4-.6v-1.2h.6v.7c.2-.4.5-.7 1-.7v.7c-.5 0-.8.4-.9.9a2.4 2.4 0 000 .4v2.4h-.7v-3.2zm4 .6v.5h-2v-.5h2zm3 1.6v1h-.5v-.5h-.1a1 1 0 01-.9.6c-.6 0-1-.5-1-1.3 0-1 .9-1.5 1.8-1.6 0-.7-.1-1-.6-1a1.2 1.2 0 00-.8.1l-.1-.4c.2-.2.6-.3 1-.3.9 0 1.2.5 1.2 1.5v2zm-.6-1.3c-.4 0-1.2.1-1.2 1 0 .6.3.8.5.8.3 0 .6-.2.6-.6V83zm4.2 1.7c0 1.2-.1 1.6-.4 2-.3.2-.7.4-1.1.4a2 2 0 01-1-.2l.2-.6.8.2c.5 0 .9-.3.9-1.3v-.4a.9.9 0 01-.9.5c-.8 0-1.3-.9-1.3-2.2 0-1.6.7-2.2 1.4-2.2.5 0 .7.3.8.5V81h.7v3.8zm-.6-2.3v-.3c-.2-.3-.3-.6-.7-.6-.5 0-.8.6-.8 1.6 0 1.1.4 1.6.8 1.6.2 0 .5 0 .6-.6V82.4zm2 .8c.1 1.3.6 1.6 1.1 1.6.3 0 .6 0 .7-.2l.2.5c-.3.2-.7.3-1 .3-1 0-1.6-.9-1.6-2.2 0-1.4.6-2.3 1.5-2.3s1.2 1 1.2 1.9v.4h-2zm1.5-.5c0-.9-.4-1.3-.7-1.3-.4 0-.7.7-.7 1.3h1.4zm1.4-.6v-1.2h.5v.6h.1c.2-.4.5-.6 1-.6.6 0 1 .4 1 1.5v2.9h-.6v-2.8c0-.5-.1-1-.6-1-.3 0-.6.2-.7.7a1.6 1.6 0 000 .4v2.7h-.7v-3.2zm4.4-2.2v1h.8v.6h-.8V84c0 .5.2.7.5.7h.2v.5a1.5 1.5 0 01-.4 0c-.3 0-.6 0-.7-.2-.2-.2-.3-.5-.3-1.1v-2.5h-.5v-.6h.5v-.7l.7-.3z"/><path fill="#b3b3b3" fill-rule="evenodd" d="M165.2 76.2h43.2v13h-43.2z" clip-rule="evenodd"/><path fill="none" stroke="#000" stroke-linecap="round" stroke-linejoin="round" d="M165.2 76.2h43.2v13h-43.2z"/><path d="M172.1 82.7v-2.4a35 35 0 01-.5 2.1l-.8 2.9h-.4l-.7-2.8a27 27 0 01-.5-2.2l-.1 2.4-.2 2.6h-.6l.4-6h.7l.7 2.7.5 2.1.5-2 .7-2.9h.8l.3 6.1h-.6l-.2-2.6zm3 2.7c-.9 0-1.5-.7-1.5-2.3 0-1.6.7-2.2 1.5-2.2.7 0 1.4.7 1.4 2.2 0 1.7-.8 2.3-1.5 2.3zm0-.6c.6 0 .7-1 .7-1.7 0-.6-.1-1.7-.8-1.7-.6 0-.7 1-.7 1.7s.1 1.7.7 1.7zm1.7 0l1.4-2.6.4-.7H177V81h2.3v.5l-1.3 2.7-.4.6h1.7v.6h-2.5v-.4zm3.5-4.5c-.2 0-.4-.2-.4-.5 0-.2.2-.4.4-.4.3 0 .4.2.4.4s-.1.5-.4.5zm-.3 5v-4.4h.7v4.4h-.7zm1.6-6.2h.7v6.2h-.7v-6.2zm1.8 0h.6v6.2h-.6v-6.2zm4 5.2v1h-.6v-.5a1 1 0 01-1 .6c-.5 0-1-.5-1-1.3 0-1 .9-1.5 1.9-1.6 0-.7-.2-1-.7-1l-.7.1-.2-.4c.2-.2.6-.3 1-.3.9 0 1.3.6 1.3 1.5v2zm-.7-1.3c-.4 0-1.2.1-1.2 1 0 .6.3.8.5.8.3 0 .6-.2.7-.6a1.2 1.2 0 000-.3V83zm1.2 2.7l2-6.5h.5l-2 6.5h-.5zm5.5-5.6h-1.6l-.2 1.5h.2c.3 0 .8.1 1.1.4.3.4.5.8.5 1.4 0 1.1-.7 2-1.8 2a2 2 0 01-1-.3l.2-.5.8.2c.6 0 1.1-.5 1.1-1.4 0-.9-.6-1.3-1.3-1.3h-.5l.4-2.6h2v.6zm1.3 5.3c-.2 0-.4-.2-.4-.5 0-.4.2-.6.5-.6.2 0 .4.2.4.6s-.2.5-.4.5zm2.6 0c-.9 0-1.5-1.1-1.5-3 0-2 .6-3 1.6-3s1.4 1.1 1.4 3c0 2.1-.6 3-1.5 3zm0-.6c.6 0 .8-1 .8-2.4s-.2-2.4-.7-2.4c-.6 0-.9 1-.9 2.4s.3 2.4.8 2.4zm4 .6c-.2 0-.4-.2-.4-.5 0-.4.2-.6.5-.6s.4.2.4.6-.1.5-.4.5zm1.8 0c-.2 0-.4-.2-.4-.5 0-.4.2-.6.4-.6.3 0 .5.2.5.6s-.2.5-.5.5zm1.8 0c-.3 0-.5-.2-.5-.5 0-.4.2-.6.5-.6.2 0 .4.2.4.6s-.1.5-.4.5z"/></svg>